<svg width="2466" height="930" viewBox="0 0 2466 930" fill="none" xmlns="http://www.w3.org/2000/svg">
<rect width="2466" height="930" fill="#94DDCC"/>
<circle cx="730" cy="474" r="6" fill="#4E505E"/>
<circle cx="730" cy="508" r="6" fill="#4E505E"/>
<circle cx="730" cy="542" r="6" fill="#4E505E"/>
<circle cx="730" cy="576" r="6" fill="#4E505E"/>
<circle cx="730" cy="610" r="6" fill="#4E505E"/>
<circle cx="730" cy="644" r="6" fill="#4E505E"/>
<circle cx="730" cy="678" r="6" fill="#4E505E"/>
<circle cx="730" cy="712" r="6" fill="#4E505E"/>
<circle cx="730" cy="746" r="6" fill="#4E505E"/>
<circle cx="730" cy="780" r="6" fill="#4E505E"/>
<circle cx="730" cy="814" r="6" fill="#4E505E"/>
<circle cx="730" cy="848" r="6" fill="#4E505E"/>
<circle cx="764" cy="474" r="6" fill="#4E505E"/>
<circle cx="764" cy="508" r="6" fill="#4E505E"/>
<circle cx="764" cy="542" r="6" fill="#4E505E"/>
<circle cx="764" cy="576" r="6" fill="#4E505E"/>
<circle cx="764" cy="610" r="6" fill="#4E505E"/>
<circle cx="764" cy="644" r="6" fill="#4E505E"/>
<circle cx="764" cy="678" r="6" fill="#4E505E"/>
<circle cx="764" cy="712" r="6" fill="#4E505E"/>
<circle cx="764" cy="746" r="6" fill="#4E505E"/>
<circle cx="764" cy="780" r="6" fill="#4E505E"/>
<circle cx="764" cy="814" r="6" fill="#4E505E"/>
<circle cx="764" cy="848" r="6" fill="#4E505E"/>
<circle cx="798" cy="474" r="6" fill="#4E505E"/>
<circle cx="798" cy="508" r="6" fill="#4E505E"/>
<circle cx="798" cy="542" r="6" fill="#4E505E"/>
<circle cx="798" cy="576" r="6" fill="#4E505E"/>
<circle cx="798" cy="610" r="6" fill="#4E505E"/>
<circle cx="798" cy="644" r="6" fill="#4E505E"/>
<circle cx="798" cy="678" r="6" fill="#4E505E"/>
<circle cx="798" cy="712" r="6" fill="#4E505E"/>
<circle cx="798" cy="746" r="6" fill="#4E505E"/>
<circle cx="798" cy="780" r="6" fill="#4E505E"/>
<circle cx="798" cy="814" r="6" fill="#4E505E"/>
<circle cx="798" cy="848" r="6" fill="#4E505E"/>
<circle cx="832" cy="474" r="6" fill="#4E505E"/>
<circle cx="832" cy="508" r="6" fill="#4E505E"/>
<circle cx="832" cy="542" r="6" fill="#4E505E"/>
<circle cx="832" cy="576" r="6" fill="#4E505E"/>
<circle cx="832" cy="610" r="6" fill="#4E505E"/>
<circle cx="832" cy="644" r="6" fill="#4E505E"/>
<circle cx="832" cy="678" r="6" fill="#4E505E"/>
<circle cx="832" cy="712" r="6" fill="#4E505E"/>
<circle cx="832" cy="746" r="6" fill="#4E505E"/>
<circle cx="832" cy="780" r="6" fill="#4E505E"/>
<circle cx="832" cy="814" r="6" fill="#4E505E"/>
<circle cx="832" cy="848" r="6" fill="#4E505E"/>
<circle cx="866" cy="474" r="6" fill="#4E505E"/>
<circle cx="866" cy="508" r="6" fill="#4E505E"/>
<circle cx="866" cy="542" r="6" fill="#4E505E"/>
<circle cx="866" cy="576" r="6" fill="#4E505E"/>
<circle cx="866" cy="610" r="6" fill="#4E505E"/>
<circle cx="866" cy="644" r="6" fill="#4E505E"/>
<circle cx="866" cy="678" r="6" fill="#4E505E"/>
<circle cx="866" cy="712" r="6" fill="#4E505E"/>
<circle cx="866" cy="746" r="6" fill="#4E505E"/>
<circle cx="866" cy="780" r="6" fill="#4E505E"/>
<circle cx="866" cy="814" r="6" fill="#4E505E"/>
<circle cx="866" cy="848" r="6" fill="#4E505E"/>
<circle cx="900" cy="474" r="6" fill="#4E505E"/>
<circle cx="900" cy="508" r="6" fill="#4E505E"/>
<circle cx="900" cy="542" r="6" fill="#4E505E"/>
<circle cx="900" cy="576" r="6" fill="#4E505E"/>
<circle cx="900" cy="610" r="6" fill="#4E505E"/>
<circle cx="900" cy="644" r="6" fill="#4E505E"/>
<circle cx="900" cy="678" r="6" fill="#4E505E"/>
<circle cx="900" cy="712" r="6" fill="#4E505E"/>
<circle cx="900" cy="746" r="6" fill="#4E505E"/>
<circle cx="900" cy="780" r="6" fill="#4E505E"/>
<circle cx="900" cy="814" r="6" fill="#4E505E"/>
<circle cx="900" cy="848" r="6" fill="#4E505E"/>
<circle cx="934" cy="474" r="6" fill="#4E505E"/>
<circle cx="934" cy="508" r="6" fill="#4E505E"/>
<circle cx="934" cy="542" r="6" fill="#4E505E"/>
<circle cx="934" cy="576" r="6" fill="#4E505E"/>
<circle cx="934" cy="610" r="6" fill="#4E505E"/>
<circle cx="934" cy="644" r="6" fill="#4E505E"/>
<circle cx="934" cy="678" r="6" fill="#4E505E"/>
<circle cx="934" cy="712" r="6" fill="#4E505E"/>
<circle cx="934" cy="746" r="6" fill="#4E505E"/>
<circle cx="934" cy="780" r="6" fill="#4E505E"/>
<circle cx="934" cy="814" r="6" fill="#4E505E"/>
<circle cx="934" cy="848" r="6" fill="#4E505E"/>
<circle cx="968" cy="474" r="6" fill="#4E505E"/>
<circle cx="968" cy="508" r="6" fill="#4E505E"/>
<circle cx="968" cy="542" r="6" fill="#4E505E"/>
<circle cx="968" cy="576" r="6" fill="#4E505E"/>
<circle cx="968" cy="610" r="6" fill="#4E505E"/>
<circle cx="968" cy="644" r="6" fill="#4E505E"/>
<circle cx="968" cy="678" r="6" fill="#4E505E"/>
<circle cx="968" cy="712" r="6" fill="#4E505E"/>
<circle cx="968" cy="746" r="6" fill="#4E505E"/>
<circle cx="968" cy="780" r="6" fill="#4E505E"/>
<circle cx="968" cy="814" r="6" fill="#4E505E"/>
<circle cx="968" cy="848" r="6" fill="#4E505E"/>
<circle cx="1002" cy="474" r="6" fill="#4E505E"/>
<circle cx="1002" cy="508" r="6" fill="#4E505E"/>
<circle cx="1002" cy="542" r="6" fill="#4E505E"/>
<circle cx="1002" cy="576" r="6" fill="#4E505E"/>
<circle cx="1002" cy="610" r="6" fill="#4E505E"/>
<circle cx="1002" cy="644" r="6" fill="#4E505E"/>
<circle cx="1002" cy="678" r="6" fill="#4E505E"/>
<circle cx="1002" cy="712" r="6" fill="#4E505E"/>
<circle cx="1002" cy="746" r="6" fill="#4E505E"/>
<circle cx="1002" cy="780" r="6" fill="#4E505E"/>
<circle cx="1002" cy="814" r="6" fill="#4E505E"/>
<circle cx="1002" cy="848" r="6" fill="#4E505E"/>
<circle cx="1036" cy="474" r="6" fill="#4E505E"/>
<circle cx="1036" cy="508" r="6" fill="#4E505E"/>
<circle cx="1036" cy="542" r="6" fill="#4E505E"/>
<circle cx="1036" cy="576" r="6" fill="#4E505E"/>
<circle cx="1036" cy="610" r="6" fill="#4E505E"/>
<circle cx="1036" cy="644" r="6" fill="#4E505E"/>
<circle cx="1036" cy="678" r="6" fill="#4E505E"/>
<circle cx="1036" cy="712" r="6" fill="#4E505E"/>
<circle cx="1036" cy="746" r="6" fill="#4E505E"/>
<circle cx="1036" cy="780" r="6" fill="#4E505E"/>
<circle cx="1036" cy="814" r="6" fill="#4E505E"/>
<circle cx="1036" cy="848" r="6" fill="#4E505E"/>
<circle cx="1070" cy="474" r="6" fill="#4E505E"/>
<circle cx="1070" cy="508" r="6" fill="#4E505E"/>
<circle cx="1070" cy="542" r="6" fill="#4E505E"/>
<circle cx="1070" cy="576" r="6" fill="#4E505E"/>
<circle cx="1070" cy="610" r="6" fill="#4E505E"/>
<circle cx="1070" cy="644" r="6" fill="#4E505E"/>
<circle cx="1070" cy="678" r="6" fill="#4E505E"/>
<circle cx="1070" cy="712" r="6" fill="#4E505E"/>
<circle cx="1070" cy="746" r="6" fill="#4E505E"/>
<circle cx="1070" cy="780" r="6" fill="#4E505E"/>
<circle cx="1070" cy="814" r="6" fill="#4E505E"/>
<circle cx="1070" cy="848" r="6" fill="#4E505E"/>
<circle cx="1104" cy="474" r="6" fill="#4E505E"/>
<circle cx="1104" cy="508" r="6" fill="#4E505E"/>
<circle cx="1104" cy="542" r="6" fill="#4E505E"/>
<circle cx="1104" cy="576" r="6" fill="#4E505E"/>
<circle cx="1104" cy="610" r="6" fill="#4E505E"/>
<circle cx="1104" cy="644" r="6" fill="#4E505E"/>
<circle cx="1104" cy="678" r="6" fill="#4E505E"/>
<circle cx="1104" cy="712" r="6" fill="#4E505E"/>
<circle cx="1104" cy="746" r="6" fill="#4E505E"/>
<circle cx="1104" cy="780" r="6" fill="#4E505E"/>
<circle cx="1104" cy="814" r="6" fill="#4E505E"/>
<circle cx="1104" cy="848" r="6" fill="#4E505E"/>
<circle cx="1617" cy="165" r="60" fill="#F3F6E6"/>
<rect x="1604" y="172" width="25" height="60" rx="12.5" fill="#C1C1C1" stroke="#4E505E" stroke-width="8"/>
<path d="M917.65 659C933.423 659 939.789 638.424 927.094 629.065C895.238 605.579 864.88 579.544 841.245 548.219C789.451 479.573 768.445 385.081 824.248 333.469C852.607 307.527 900.146 292.559 951.667 276.338C1002.82 260.232 1057.9 242.891 1102.03 212.344C1146.5 181.428 1179.85 137.47 1211.86 95.2718C1219.69 84.961 1212.33 70 1199.38 70H732C723.163 70 716 77.1635 716 86V643C716 651.837 723.163 659 732 659H917.65Z" fill="#F3F6E6"/>
<path fill-rule="evenodd" clip-rule="evenodd" d="M1104 860.46H1656.25C1708.17 860.46 1750.25 818.375 1750.25 766.46V461.46C1750.25 437 1740.91 414.722 1725.6 398C1688.95 412.911 1652.24 432.962 1623.42 461.162C1569.38 513.419 1542.7 593.343 1520.06 661.203C1505.89 703.644 1493.3 741.366 1476.58 764.651C1449.33 801.659 1412.72 802.336 1361.3 803.288C1328.21 803.9 1288.99 804.625 1242.19 815.219C1199.69 825.058 1150.99 842.998 1104 860.46Z" fill="#F3F6E6"/>
<line x1="1702.83" y1="644.828" x2="1638.83" y2="708.828" stroke="#4E505E" stroke-width="8"/>
<line x1="903.828" y1="121.828" x2="775.828" y2="249.828" stroke="#4E505E" stroke-width="8"/>
<line x1="960.828" y1="121.828" x2="903.828" y2="178.828" stroke="#4E505E" stroke-width="8"/>
<circle cx="981.5" cy="155.5" r="7.5" fill="#4E505E"/>
<path d="M1571.04 795.994L1582.83 793.604C1588.39 792.476 1588.39 784.524 1582.83 783.396L1571.04 781.006C1559.43 778.651 1550.35 769.574 1547.99 757.959L1545.6 746.173C1544.48 740.609 1536.52 740.609 1535.4 746.173L1533.01 757.959C1530.65 769.574 1521.57 778.651 1509.96 781.006L1498.17 783.396C1492.61 784.524 1492.61 792.476 1498.17 793.604L1509.96 795.994C1521.57 798.349 1530.65 807.426 1533.01 819.041L1535.4 830.827C1536.52 836.391 1544.48 836.391 1545.6 830.827L1547.99 819.041C1550.35 807.426 1559.43 798.349 1571.04 795.994Z" fill="#FCEC7F"/>
<rect x="777" y="369" width="542" height="451" fill="#F3F6E6" stroke="#4E505E" stroke-width="8"/>
<rect x="773" y="365" width="550" height="93" fill="#4E505E"/>
<circle cx="812.861" cy="412.108" r="16.9105" fill="#EC7B74"/>
<circle cx="861.176" cy="412.108" r="16.9105" fill="#FCEC7F"/>
<circle cx="909.493" cy="412.108" r="16.9105" fill="#94DDCC"/>
<path d="M1122.5 279C1120.01 279 1118 277.193 1118 274.964V264.036C1118 261.807 1120.01 260 1122.5 260C1124.99 260 1127 261.807 1127 264.036V274.964C1127 277.193 1124.99 279 1122.5 279Z" fill="#F3F6E6"/>
<path d="M1122.5 309C1120.01 309 1118 307.098 1118 304.752V293.248C1118 290.902 1120.01 289 1122.5 289C1124.99 289 1127 290.902 1127 293.248V304.752C1127 307.099 1124.99 309 1122.5 309Z" fill="#F3F6E6"/>
<path d="M1142.96 288H1132.04C1129.81 288 1128 286.209 1128 284C1128 281.791 1129.81 280 1132.04 280H1142.96C1145.19 280 1147 281.791 1147 284C1147 286.209 1145.19 288 1142.96 288Z" fill="#F3F6E6"/>
<path d="M1112.96 288H1102.04C1099.81 288 1098 286.209 1098 284C1098 281.791 1099.81 280 1102.04 280H1112.96C1115.19 280 1117 281.791 1117 284C1117 286.209 1115.19 288 1112.96 288Z" fill="#F3F6E6"/>
<circle cx="1617" cy="168" r="34" fill="#FCEC7F" stroke="#4E505E" stroke-width="8"/>
<line x1="1603" y1="215" x2="1631" y2="215" stroke="#4E505E" stroke-width="8"/>
<line x1="1672" y1="169" x2="1692" y2="169" stroke="#4E505E" stroke-width="8"/>
<line x1="1660.17" y1="129.314" x2="1674.31" y2="115.172" stroke="#4E505E" stroke-width="8"/>
<line x1="1574.31" y1="127.971" x2="1560.17" y2="113.828" stroke="#4E505E" stroke-width="8"/>
<line x1="1541" y1="169" x2="1561" y2="169" stroke="#4E505E" stroke-width="8"/>
<line x1="1618" y1="89" x2="1618" y2="109" stroke="#4E505E" stroke-width="8"/>
<circle cx="970.5" cy="249.5" r="69.5" fill="#A8C5FC" stroke="#4E505E" stroke-width="8"/>
<path d="M1061.37 213.262C1062.18 215.238 1061.88 218.499 1058.64 223.446C1055.48 228.261 1050.06 233.833 1042.59 239.785C1027.69 251.654 1005.36 264.454 979.149 275.252C952.936 286.051 928.075 292.69 909.137 294.763C899.64 295.802 891.867 295.666 886.237 294.469C880.453 293.24 877.94 291.139 877.126 289.163C876.312 287.188 876.616 283.926 879.855 278.979C883.009 274.164 888.43 268.592 895.903 262.64C910.806 250.771 933.129 237.972 959.342 227.173C985.555 216.374 1010.42 209.735 1029.35 207.662C1038.85 206.623 1046.62 206.759 1052.25 207.956C1058.04 209.185 1060.55 211.286 1061.37 213.262Z" stroke="#4E505E" stroke-width="8"/>
<path d="M927.746 671L832 728.879L927.746 783L1025 728.879L927.746 671Z" fill="#4E505E" stroke="#4E505E"/>
<path d="M880 640.439L928.485 611L980 640.439V698.561L928.485 728L880 698.561V640.439Z" fill="#FCEC7F" stroke="#4E505E"/>
<path d="M928.037 789C927.442 789.002 926.857 788.847 926.34 788.551L827.698 731.956C827.18 731.656 826.75 731.225 826.452 730.705C826.153 730.186 825.998 729.597 826 728.998L826.221 610.985C826.221 610.389 826.378 609.803 826.676 609.287C826.974 608.771 827.403 608.342 827.918 608.044L926.347 551.456C926.863 551.157 927.448 551 928.044 551C928.64 551 929.226 551.157 929.742 551.456L1028.3 608.044C1028.82 608.344 1029.25 608.775 1029.55 609.295C1029.85 609.814 1030 610.403 1030 611.002L1029.78 729.015C1029.78 729.611 1029.62 730.196 1029.32 730.713C1029.03 731.229 1028.6 731.657 1028.08 731.956L929.728 788.548C929.214 788.844 928.631 789 928.037 789ZM832.784 727.036L928.034 781.68L1023 727.036L1023.22 612.961L928.037 558.323L832.998 612.964L832.784 727.036Z" fill="#4E505E"/>
<path d="M928.429 674C927.812 674 927.208 673.832 926.679 673.512L828 613.894L831.496 608L928.429 666.564L1025.51 608.007L1029 613.894L930.175 673.512C929.647 673.831 929.044 674 928.429 674Z" fill="#4E505E"/>
<path d="M924 670H932V785H924V670Z" fill="#4E505E"/>
<path d="M927.796 733C927.163 733.001 926.543 732.825 926.004 732.493L878.252 702.993L830.588 732.476L827 726.687L874.848 697.061L874.981 640.592C874.987 640.007 875.144 639.434 875.437 638.928C875.729 638.421 876.147 637.999 876.65 637.701L926.055 608.473C926.57 608.169 927.156 608.006 927.754 608C928.352 607.994 928.941 608.146 929.462 608.439L981.269 637.667C981.795 637.963 982.232 638.395 982.536 638.916C982.84 639.437 983 640.029 983 640.633V698.988C983 699.58 982.846 700.162 982.553 700.676C982.259 701.19 981.837 701.619 981.327 701.92L929.53 732.527C929.005 732.837 928.406 733 927.796 733ZM881.662 697.095L927.834 725.617L976.196 697.061V642.618L927.834 615.335L881.788 642.577L881.662 697.095Z" fill="#4E505E"/>
<path d="M977.812 701.474L981.527 695.79L1028.24 726.32L1024.53 732.004L977.812 701.474Z" fill="#4E505E"/>
<path d="M924 555H932V611H924V555Z" fill="#4E505E"/>
<circle cx="1595" cy="546" r="46" fill="#EC7B74" stroke="#4E505E" stroke-width="8"/>
<circle cx="1595" cy="546" r="94" stroke="#4E505E" stroke-width="8"/>
<circle cx="1502" cy="565" r="17" fill="#EEBED3" stroke="#4E505E" stroke-width="8"/>
<circle cx="1566" cy="638" r="17" fill="#EEBED3" stroke="#4E505E" stroke-width="8"/>
<circle cx="1659" cy="474" r="17" fill="#EEBED3" stroke="#4E505E" stroke-width="8"/>
<path d="M1485.03 184.156L1486.02 187.346L1489.33 186.949C1492.19 186.607 1495.06 186.434 1497.94 186.432C1537.75 186.434 1570 218.584 1570 258.215C1570 297.846 1537.75 330 1497.94 330H1263.42C1229.1 329.843 1200.7 303.41 1198.18 269.337L1198.18 269.336C1195.66 235.264 1219.88 204.975 1253.81 199.813L1258.17 199.15L1257.08 194.877C1255.53 188.744 1254.74 182.441 1254.74 176.115V176.113C1254.71 139.472 1280.28 107.734 1316.22 99.8385C1352.16 91.9448 1388.76 110.036 1404.2 143.301L1405.72 146.571L1409.13 145.401C1415.26 143.294 1421.71 142.219 1428.21 142.226C1454.34 142.279 1477.37 159.287 1485.03 184.156Z" fill="#F3F6E6" stroke="#4E505E" stroke-width="8"/>
<path d="M1477.02 357C1484.6 370.548 1491.42 383.202 1494.07 398.704C1497.12 416.555 1499.17 436.908 1493.01 454.343C1484.26 479.096 1460.91 493.698 1435.68 496.652C1422.9 498.148 1410.65 496.112 1398.97 490.796C1393.22 488.175 1385.06 484.033 1382.03 477.971C1377.24 468.374 1403.87 469.549 1407.95 470.095C1414.4 470.959 1418.63 475.175 1421.97 480.597C1430.66 494.724 1432.89 511.022 1428.17 526.895C1421.93 547.862 1405.17 561.661 1385.56 569.76C1371.42 575.601 1356.33 577.839 1341.14 577.839C1337.51 577.839 1333.27 578.567 1330 576.93" stroke="#4E505E" stroke-width="8" stroke-linecap="round" stroke-linejoin="round"/>
<path fill-rule="evenodd" clip-rule="evenodd" d="M1323 609.503C1321.1 608.568 1318.97 608.042 1316.72 608.042H1257.64L1241.55 581.683C1240.53 580.016 1238.72 579 1236.77 579H1192.28C1184.41 579 1178 585.428 1178 593.328V617.857V703.672C1178 711.572 1184.41 718 1192.28 718H1289.95H1316.72C1318.97 718 1321.1 717.474 1323 716.539V609.503Z" fill="#4E505E"/>
<path d="M1274.22 592.126L1275.39 594.042H1277.64H1336.72C1342.37 594.042 1347 598.666 1347 604.371V685.672C1347 691.376 1342.37 696 1336.72 696H1309.95H1212.28C1206.63 696 1202 691.376 1202 685.672V599.857V575.328C1202 569.624 1206.63 565 1212.28 565H1256.77C1257.32 565 1257.84 565.286 1258.13 565.767C1258.13 565.767 1258.13 565.767 1258.13 565.767L1274.22 592.126Z" fill="#A8C5FC" stroke="#4E505E" stroke-width="8"/>
</svg>
