<svg width="2466" height="930" viewBox="0 0 2466 930" fill="none" xmlns="http://www.w3.org/2000/svg">
<rect width="2466" height="930" fill="#F487B4"/>
<rect x="1638.43" y="236" width="92" height="60" transform="rotate(45 1638.43 236)" fill="#F3F6E6"/>
<rect x="1480.43" y="80" width="92" height="60" transform="rotate(45 1480.43 80)" fill="#F3F6E6"/>
<circle cx="1302" cy="80" r="6" fill="#4E505E"/>
<circle cx="1302" cy="114" r="6" fill="#4E505E"/>
<circle cx="1302" cy="148" r="6" fill="#4E505E"/>
<circle cx="1302" cy="182" r="6" fill="#4E505E"/>
<circle cx="1336" cy="80" r="6" fill="#4E505E"/>
<circle cx="1336" cy="114" r="6" fill="#4E505E"/>
<circle cx="1336" cy="148" r="6" fill="#4E505E"/>
<circle cx="1336" cy="182" r="6" fill="#4E505E"/>
<circle cx="1370" cy="80" r="6" fill="#4E505E"/>
<circle cx="1370" cy="114" r="6" fill="#4E505E"/>
<circle cx="1370" cy="148" r="6" fill="#4E505E"/>
<circle cx="1370" cy="182" r="6" fill="#4E505E"/>
<circle cx="1404" cy="80" r="6" fill="#4E505E"/>
<circle cx="1404" cy="114" r="6" fill="#4E505E"/>
<circle cx="1404" cy="148" r="6" fill="#4E505E"/>
<circle cx="1404" cy="182" r="6" fill="#4E505E"/>
<circle cx="1438" cy="80" r="6" fill="#4E505E"/>
<circle cx="1438" cy="114" r="6" fill="#4E505E"/>
<circle cx="1438" cy="148" r="6" fill="#4E505E"/>
<circle cx="1438" cy="182" r="6" fill="#4E505E"/>
<circle cx="1472" cy="80" r="6" fill="#4E505E"/>
<circle cx="1472" cy="182" r="6" fill="#4E505E"/>
<circle cx="1506" cy="80" r="6" fill="#4E505E"/>
<circle cx="1506" cy="182" r="6" fill="#4E505E"/>
<circle cx="1540" cy="80" r="6" fill="#4E505E"/>
<circle cx="1540" cy="114" r="6" fill="#4E505E"/>
<circle cx="1540" cy="148" r="6" fill="#4E505E"/>
<circle cx="1540" cy="182" r="6" fill="#4E505E"/>
<circle cx="1574" cy="80" r="6" fill="#4E505E"/>
<circle cx="1574" cy="114" r="6" fill="#4E505E"/>
<circle cx="1574" cy="148" r="6" fill="#4E505E"/>
<circle cx="1574" cy="182" r="6" fill="#4E505E"/>
<circle cx="1608" cy="80" r="6" fill="#4E505E"/>
<circle cx="1608" cy="114" r="6" fill="#4E505E"/>
<circle cx="1608" cy="148" r="6" fill="#4E505E"/>
<circle cx="1608" cy="182" r="6" fill="#4E505E"/>
<circle cx="1608" cy="216" r="6" fill="#4E505E"/>
<circle cx="1608" cy="250" r="6" fill="#4E505E"/>
<circle cx="1608" cy="318" r="6" fill="#4E505E"/>
<circle cx="1608" cy="352" r="6" fill="#4E505E"/>
<circle cx="1608" cy="386" r="6" fill="#4E505E"/>
<circle cx="1608" cy="420" r="6" fill="#4E505E"/>
<circle cx="1642" cy="80" r="6" fill="#4E505E"/>
<circle cx="1642" cy="114" r="6" fill="#4E505E"/>
<circle cx="1642" cy="148" r="6" fill="#4E505E"/>
<circle cx="1642" cy="182" r="6" fill="#4E505E"/>
<circle cx="1642" cy="216" r="6" fill="#4E505E"/>
<circle cx="1642" cy="318" r="6" fill="#4E505E"/>
<circle cx="1642" cy="352" r="6" fill="#4E505E"/>
<circle cx="1642" cy="386" r="6" fill="#4E505E"/>
<circle cx="1642" cy="420" r="6" fill="#4E505E"/>
<circle cx="1676" cy="80" r="6" fill="#4E505E"/>
<circle cx="1676" cy="114" r="6" fill="#4E505E"/>
<circle cx="1676" cy="148" r="6" fill="#4E505E"/>
<circle cx="1676" cy="182" r="6" fill="#4E505E"/>
<circle cx="1676" cy="216" r="6" fill="#4E505E"/>
<circle cx="1676" cy="250" r="6" fill="#4E505E"/>
<circle cx="1676" cy="352" r="6" fill="#4E505E"/>
<circle cx="1676" cy="386" r="6" fill="#4E505E"/>
<circle cx="1676" cy="420" r="6" fill="#4E505E"/>
<circle cx="1710" cy="80" r="6" fill="#4E505E"/>
<circle cx="1710" cy="114" r="6" fill="#4E505E"/>
<circle cx="1710" cy="148" r="6" fill="#4E505E"/>
<circle cx="1710" cy="182" r="6" fill="#4E505E"/>
<circle cx="1710" cy="216" r="6" fill="#4E505E"/>
<circle cx="1710" cy="250" r="6" fill="#4E505E"/>
<circle cx="1710" cy="284" r="6" fill="#4E505E"/>
<circle cx="1710" cy="318" r="6" fill="#4E505E"/>
<circle cx="1710" cy="352" r="6" fill="#4E505E"/>
<circle cx="1710" cy="386" r="6" fill="#4E505E"/>
<circle cx="1710" cy="420" r="6" fill="#4E505E"/>
<circle cx="1744" cy="80" r="6" fill="#4E505E"/>
<circle cx="1744" cy="114" r="6" fill="#4E505E"/>
<circle cx="1744" cy="148" r="6" fill="#4E505E"/>
<circle cx="1744" cy="182" r="6" fill="#4E505E"/>
<circle cx="1744" cy="216" r="6" fill="#4E505E"/>
<circle cx="1744" cy="250" r="6" fill="#4E505E"/>
<circle cx="1744" cy="284" r="6" fill="#4E505E"/>
<circle cx="1744" cy="318" r="6" fill="#4E505E"/>
<circle cx="1744" cy="352" r="6" fill="#4E505E"/>
<circle cx="1744" cy="386" r="6" fill="#4E505E"/>
<circle cx="1744" cy="420" r="6" fill="#4E505E"/>
<circle cx="1404" cy="182" r="6" fill="#4E505E"/>
<circle cx="1438" cy="182" r="6" fill="#4E505E"/>
<circle cx="1472" cy="182" r="6" fill="#4E505E"/>
<circle cx="1506" cy="182" r="6" fill="#4E505E"/>
<circle cx="1540" cy="182" r="6" fill="#4E505E"/>
<circle cx="1574" cy="182" r="6" fill="#4E505E"/>
<circle cx="1608" cy="182" r="6" fill="#4E505E"/>
<circle cx="1608" cy="216" r="6" fill="#4E505E"/>
<circle cx="1608" cy="250" r="6" fill="#4E505E"/>
<circle cx="1608" cy="318" r="6" fill="#4E505E"/>
<circle cx="1608" cy="352" r="6" fill="#4E505E"/>
<circle cx="1608" cy="386" r="6" fill="#4E505E"/>
<circle cx="1608" cy="420" r="6" fill="#4E505E"/>
<circle cx="1642" cy="182" r="6" fill="#4E505E"/>
<circle cx="1642" cy="216" r="6" fill="#4E505E"/>
<circle cx="1642" cy="318" r="6" fill="#4E505E"/>
<circle cx="1642" cy="352" r="6" fill="#4E505E"/>
<circle cx="1642" cy="386" r="6" fill="#4E505E"/>
<circle cx="1642" cy="420" r="6" fill="#4E505E"/>
<circle cx="1676" cy="182" r="6" fill="#4E505E"/>
<circle cx="1676" cy="216" r="6" fill="#4E505E"/>
<circle cx="1676" cy="250" r="6" fill="#4E505E"/>
<circle cx="1676" cy="352" r="6" fill="#4E505E"/>
<circle cx="1676" cy="386" r="6" fill="#4E505E"/>
<circle cx="1676" cy="420" r="6" fill="#4E505E"/>
<circle cx="1710" cy="182" r="6" fill="#4E505E"/>
<circle cx="1710" cy="216" r="6" fill="#4E505E"/>
<circle cx="1710" cy="250" r="6" fill="#4E505E"/>
<circle cx="1710" cy="284" r="6" fill="#4E505E"/>
<circle cx="1710" cy="318" r="6" fill="#4E505E"/>
<circle cx="1710" cy="352" r="6" fill="#4E505E"/>
<circle cx="1710" cy="386" r="6" fill="#4E505E"/>
<circle cx="1710" cy="420" r="6" fill="#4E505E"/>
<circle cx="1744" cy="182" r="6" fill="#4E505E"/>
<circle cx="1744" cy="216" r="6" fill="#4E505E"/>
<circle cx="1744" cy="250" r="6" fill="#4E505E"/>
<circle cx="1744" cy="284" r="6" fill="#4E505E"/>
<circle cx="1744" cy="318" r="6" fill="#4E505E"/>
<circle cx="1744" cy="352" r="6" fill="#4E505E"/>
<circle cx="1744" cy="386" r="6" fill="#4E505E"/>
<circle cx="1744" cy="420" r="6" fill="#4E505E"/>
<path fill-rule="evenodd" clip-rule="evenodd" d="M1522.7 317.44C1531.5 309.591 1537 298.409 1537 286C1537 262.252 1516.85 243 1492 243C1479.2 243 1467.64 248.111 1459.45 256.314L1522.7 317.44Z" fill="#A8C5FC"/>
<rect x="1587.57" y="143.774" width="70.1736" height="105.646" transform="rotate(44.9235 1587.57 143.774)" fill="#A8C5FC"/>
<rect x="1539.65" y="213" width="36.737" height="44.8205" transform="rotate(44.9235 1539.65 213)" fill="#A8C5FC"/>
<rect x="1616.65" y="142" width="36.737" height="44.8205" transform="rotate(44.9235 1616.65 142)" fill="#A8C5FC"/>
<path d="M1746 658.38C1746 642.609 1710.02 636.244 1693.65 648.938C1652.58 680.789 1607.05 711.142 1552.28 734.773C1432.23 786.56 1266.99 807.563 1176.74 751.768C1131.37 723.413 1105.2 675.881 1076.83 624.368C1048.66 573.222 1018.34 518.15 964.92 474.027C910.857 429.565 833.987 396.221 760.193 364.21C742.163 356.389 716 363.749 716 376.689L716 844.002C716 852.838 728.527 860 743.98 860L1718.02 860C1733.47 860 1746 852.838 1746 844.002L1746 658.38Z" fill="#F3F6E6"/>
<path d="M862.167 241.289C942.747 252.138 1017.69 262.227 1060.81 209.887C1079.34 187.651 1092.14 154.159 1101.44 116.482C1107.38 92.4031 1088.34 70 1063.54 70L747.453 70C732.291 70 720 82.282 720 97.4328V224.597C720 229.489 724.25 233.285 729.126 232.9C772.303 229.19 818.08 235.353 862.167 241.289Z" fill="#F3F6E6"/>
<path fill-rule="evenodd" clip-rule="evenodd" d="M1391 779.652V813H766V366.729C838 397.975 912.274 430.73 964.92 474.027C1018.34 518.15 1048.66 573.221 1076.83 624.368C1105.2 675.881 1131.37 723.413 1176.74 751.768C1230.18 784.808 1309.92 790.918 1391 779.652Z" fill="#4E505E"/>
<rect x="784" y="334" width="617" height="451" fill="#F3F6E6" stroke="#4E505E" stroke-width="8"/>
<rect x="784" y="334" width="617" height="85" fill="#FCEC7F" stroke="#4E505E" stroke-width="8"/>
<circle cx="819.861" cy="377.108" r="13.4105" stroke="#4E505E" stroke-width="7"/>
<circle cx="868.176" cy="377.108" r="13.4105" stroke="#4E505E" stroke-width="7"/>
<circle cx="916.492" cy="377.108" r="13.4105" stroke="#4E505E" stroke-width="7"/>
<path fill-rule="evenodd" clip-rule="evenodd" d="M1467.83 763.973C1484.04 773.049 1512.42 780 1547.5 780C1603.19 780 1642 762.482 1642 746.755V686.054C1614.74 703.964 1585.17 720.581 1552.28 734.773C1525.89 746.157 1497.31 756.053 1467.83 763.973Z" fill="#4E505E"/>
<circle cx="941" cy="193" r="21" fill="#FCEC7F" stroke="#4E505E" stroke-width="8"/>
<path d="M964.438 208.756C982.379 219.358 1002.72 227.887 1019.37 240.472C1027.71 246.77 1033.62 254.689 1036.28 264.868C1041.97 286.601 1037.7 305.987 1035.78 327.627C1034.12 346.255 1041.95 366.979 1058.32 376.841C1078.21 388.816 1102.46 391.846 1123.27 402.079C1136.97 408.816 1152.73 415.208 1162.81 426.728C1171.31 436.441 1177.81 447.34 1186.28 457.098C1188.42 459.562 1221.75 493.666 1224.89 487.383" stroke="#4E505E" stroke-width="8" stroke-linecap="round" stroke-linejoin="round" stroke-dasharray="20 20"/>
<circle cx="1247" cy="483" r="21" fill="#94DDCC" stroke="#4E505E" stroke-width="8"/>
<path d="M1493.19 345.985C1493.19 343.215 1490.95 340.97 1488.18 340.97C1461.08 340.97 1439.03 318.923 1439.03 291.824C1439.03 289.054 1436.78 286.809 1434.01 286.809C1431.24 286.809 1429 289.054 1429 291.824C1429 324.453 1455.55 350.999 1488.18 350.999C1490.95 350.999 1493.19 348.754 1493.19 345.985Z" fill="#4E505E"/>
<path d="M1447.05 291.824C1447.05 314.498 1465.5 332.946 1488.18 332.946C1490.95 332.946 1493.19 330.7 1493.19 327.931C1493.19 325.161 1490.95 322.916 1488.18 322.916C1471.03 322.916 1457.08 308.968 1457.08 291.824C1457.08 289.054 1454.84 286.809 1452.07 286.809C1449.3 286.809 1447.05 289.054 1447.05 291.824Z" fill="#4E505E"/>
<path d="M1465.11 291.824C1465.11 304.543 1475.46 314.892 1488.18 314.892C1490.95 314.892 1493.19 312.647 1493.19 309.877C1493.19 307.108 1490.95 304.862 1488.18 304.862C1480.99 304.862 1475.14 299.013 1475.14 291.824C1475.14 289.054 1472.89 286.809 1470.12 286.809C1467.35 286.809 1465.11 289.054 1465.11 291.824Z" fill="#4E505E"/>
<path d="M1483.97 288.934C1482.99 289.913 1482.51 291.197 1482.51 292.48C1482.51 293.763 1482.99 295.047 1483.97 296.026C1485.93 297.984 1489.11 297.984 1491.07 296.026L1492.83 294.264L1519.07 320.505C1520.01 321.446 1521.28 321.974 1522.61 321.974C1523.94 321.974 1525.22 321.446 1526.16 320.505C1539.14 307.521 1542.94 288.786 1537.58 272.424L1545.54 264.463L1558.16 277.081C1560.12 279.039 1563.29 279.039 1565.25 277.081L1597.52 244.817L1610.26 257.558L1594.42 273.397C1593.44 274.376 1592.95 275.66 1592.95 276.943C1592.95 278.226 1593.44 279.51 1594.42 280.489L1659.67 345.738C1660.61 346.679 1661.88 347.207 1663.21 347.207C1664.54 347.207 1665.82 346.679 1666.76 345.738L1705.53 306.969C1706.47 306.029 1707 304.753 1707 303.423C1707 302.093 1706.47 300.817 1705.53 299.877L1640.28 234.628C1639.34 233.687 1638.07 233.159 1636.74 233.159C1635.41 233.159 1634.13 233.687 1633.19 234.628L1617.35 250.467L1604.61 237.726L1628.94 213.391C1638.6 203.733 1639.67 188.697 1632.16 177.84L1643.53 166.478C1645.49 164.519 1645.49 161.344 1643.53 159.386L1620.61 136.473C1619.67 135.532 1618.4 135.004 1617.07 135.004C1615.74 135.004 1614.46 135.532 1613.52 136.473L1602.16 147.832C1597.54 144.624 1592.07 142.891 1586.32 142.891C1578.87 142.891 1571.88 145.791 1566.61 151.056L1542.27 175.391L1529.53 162.65L1545.37 146.811C1547.33 144.852 1547.33 141.677 1545.37 139.719L1480.12 74.4689C1478.16 72.5104 1474.99 72.5104 1473.03 74.4689L1434.26 113.239C1433.28 114.218 1432.79 115.502 1432.79 116.785C1432.79 118.069 1433.28 119.352 1434.26 120.331L1499.51 185.581C1501.47 187.539 1504.64 187.539 1506.6 185.581L1522.44 169.742L1535.18 182.483L1502.92 214.747C1501.98 215.687 1501.45 216.963 1501.45 218.293C1501.45 219.623 1501.98 220.898 1502.92 221.838L1515.54 234.459L1507.58 242.418C1491.22 237.055 1472.48 240.853 1459.49 253.839C1458.51 254.818 1458.02 256.102 1458.02 257.385C1458.02 258.668 1458.51 259.952 1459.49 260.931L1485.73 287.171L1483.97 288.934ZM1626.77 298.661L1658.45 266.983L1673.18 281.707L1641.5 313.385L1626.77 298.661ZM1694.89 303.423L1663.21 335.101L1648.59 320.476L1680.27 288.798L1694.89 303.423ZM1651.36 259.89L1619.68 291.568L1605.06 276.944L1636.74 245.265L1651.36 259.89ZM1513.02 121.548L1481.34 153.226L1466.62 138.501L1498.29 106.823L1513.02 121.548ZM1444.9 116.785L1476.58 85.1072L1491.2 99.732L1459.52 131.41L1444.9 116.785ZM1488.43 160.318L1520.11 128.64L1534.73 143.265L1503.06 174.943L1488.43 160.318ZM1617.64 210.509L1575.09 253.06L1526.94 204.909L1569.49 162.359L1617.64 210.509ZM1627.07 193.68C1627.07 196.947 1626.18 200.213 1624.4 203.082L1576.91 155.599C1579.71 153.858 1582.94 152.921 1586.32 152.921C1591.09 152.921 1595.57 154.778 1598.94 158.148L1621.85 181.061C1625.33 184.54 1627.07 189.109 1627.07 193.68ZM1632.89 162.932L1625.4 170.422L1617.49 162.512L1609.58 154.602L1617.07 147.111L1632.89 162.932ZM1513.56 218.293L1519.85 212.001L1568 260.152L1561.71 266.443L1513.56 218.293ZM1522.63 241.552L1538.45 257.372L1533.12 262.707C1531.2 259.549 1528.89 256.564 1526.16 253.838C1523.44 251.113 1520.45 248.803 1517.3 246.886L1522.63 241.552ZM1470.37 257.624C1484.91 246.561 1505.8 247.663 1519.07 260.931C1526.3 268.166 1529.92 277.668 1529.92 287.172C1529.92 295.096 1527.41 303.019 1522.38 309.628L1470.37 257.624Z" fill="#4E505E"/>
<line x1="1574.83" y1="177.828" x2="1556.83" y2="195.828" stroke="#4E505E" stroke-width="8"/>
<line x1="1548.83" y1="202.828" x2="1542.83" y2="208.828" stroke="#4E505E" stroke-width="8"/>
<path d="M1706.04 440.994L1717.83 438.604C1723.39 437.476 1723.39 429.524 1717.83 428.396L1706.04 426.006C1694.43 423.651 1685.35 414.574 1682.99 402.959L1680.6 391.173C1679.48 385.609 1671.52 385.609 1670.4 391.173L1668.01 402.959C1665.65 414.574 1656.57 423.651 1644.96 426.006L1633.17 428.396C1627.61 429.524 1627.61 437.476 1633.17 438.604L1644.96 440.994C1656.57 443.349 1665.65 452.426 1668.01 464.041L1670.4 475.827C1671.52 481.391 1679.48 481.391 1680.6 475.827L1682.99 464.041C1685.35 452.426 1694.43 443.349 1706.04 440.994Z" fill="#FCEC7F"/>
<path d="M1415.76 155.868L1421.85 154.635C1424.72 154.052 1424.72 149.948 1421.85 149.365L1415.76 148.132C1409.77 146.917 1405.08 142.232 1403.87 136.237L1402.63 130.154C1402.05 127.282 1397.95 127.282 1397.37 130.154L1396.13 136.237C1394.92 142.232 1390.23 146.917 1384.24 148.132L1378.15 149.365C1375.28 149.948 1375.28 154.052 1378.15 154.635L1384.24 155.868C1390.23 157.083 1394.92 161.768 1396.13 167.763L1397.37 173.846C1397.95 176.718 1402.05 176.718 1402.63 173.846L1403.87 167.763C1405.08 161.768 1409.77 157.083 1415.76 155.868Z" fill="#FCEC7F"/>
<path d="M1660.88 97.9339L1663.92 97.3173C1665.36 97.0261 1665.36 94.9739 1663.92 94.6827L1660.88 94.0661C1657.88 93.4584 1655.54 91.1159 1654.93 88.1185L1654.32 85.0769C1654.03 83.641 1651.97 83.641 1651.68 85.0769L1651.07 88.1185C1650.46 91.1159 1648.12 93.4584 1645.12 94.0661L1642.08 94.6827C1640.64 94.9739 1640.64 97.0261 1642.08 97.3173L1645.12 97.9339C1648.12 98.5416 1650.46 100.884 1651.07 103.881L1651.68 106.923C1651.97 108.359 1654.03 108.359 1654.32 106.923L1654.93 103.881C1655.54 100.884 1657.88 98.5417 1660.88 97.9339Z" fill="#FCEC7F"/>
<path d="M1030.34 133.159L1034.52 132.311C1036.49 131.911 1036.49 129.089 1034.52 128.689L1030.34 127.841C1026.22 127.005 1022.99 123.784 1022.16 119.663L1021.31 115.481C1020.91 113.506 1018.09 113.506 1017.69 115.481L1016.84 119.663C1016.01 123.784 1012.78 127.005 1008.66 127.841L1004.48 128.689C1002.51 129.089 1002.51 131.911 1004.48 132.311L1008.66 133.159C1012.78 133.995 1016.01 137.216 1016.84 141.337L1017.69 145.519C1018.09 147.494 1020.91 147.494 1021.31 145.519L1022.16 141.337C1022.99 137.216 1026.22 133.995 1030.34 133.159Z" fill="#FCEC7F"/>
<rect x="943" y="513" width="288" height="83" rx="37" fill="#94DDCC"/>
<rect x="987" y="517" width="131" height="75" rx="37.5" fill="#FCEC7F" stroke="#4E505E" stroke-width="8"/>
<g clip-path="url(#clip0)">
<path d="M1077.09 632.997C1073.72 631.466 1070.12 631.063 1066.72 631.623C1067.38 624.229 1063.37 616.872 1056.24 613.628C1052.87 612.096 1049.27 611.694 1045.87 612.254C1046.52 604.859 1042.52 597.503 1035.39 594.258C1032.4 592.902 1029.24 592.431 1026.19 592.737L1038.37 565.955C1042.48 556.918 1038.47 546.227 1029.44 542.118C1020.4 538.009 1009.71 542.016 1005.6 551.052L962.044 646.833L944.645 625.327C942.025 622.088 938.629 619.467 934.836 617.742C926.201 613.815 915.995 617.647 912.05 626.323C910.146 630.51 909.992 635.176 911.605 639.478L940.489 716.541C947.012 733.962 959.948 747.803 976.89 755.508C1006.25 768.86 1041.01 755.834 1054.36 726.471L1086.03 656.833C1090.14 647.797 1086.13 637.106 1077.09 632.997ZM1046.17 722.746C1034.87 747.594 1005.46 758.611 980.608 747.311C965.853 740.601 954.602 728.555 948.927 713.378L920.035 636.312C919.263 634.27 919.337 632.04 920.265 630C922.135 625.887 926.998 624.065 931.111 625.935C933.642 627.086 935.894 628.832 937.649 630.994L959.635 658.156C960.618 659.364 962.163 659.988 963.698 659.786C965.241 659.588 966.579 658.605 967.223 657.187L1013.79 554.778C1015.85 550.264 1021.19 548.255 1025.71 550.311C1030.23 552.368 1032.23 557.715 1030.18 562.229L994.785 640.06C993.757 642.321 994.757 644.991 997.019 646.019C999.28 647.047 1001.95 646.047 1002.98 643.786L1019.74 606.918C1021.8 602.404 1027.14 600.395 1031.66 602.451C1036.18 604.508 1038.18 609.855 1036.13 614.369L1019.36 651.237C1018.33 653.498 1019.34 656.168 1021.6 657.196C1023.86 658.224 1026.53 657.223 1027.56 654.962L1040.6 626.288C1042.65 621.773 1047.99 619.764 1052.51 621.821C1057.04 623.877 1059.03 629.225 1056.98 633.739L1043.94 662.413C1042.91 664.674 1043.91 667.344 1046.17 668.372C1048.44 669.401 1051.11 668.4 1052.13 666.139L1061.45 645.657C1063.5 641.142 1068.84 639.133 1073.37 641.19C1077.89 643.246 1079.89 648.594 1077.83 653.108L1046.17 722.746Z" fill="#4E505E"/>
</g>
<line x1="850.828" y1="105.828" x2="793.828" y2="162.828" stroke="#4E505E" stroke-width="8"/>
<line x1="933.828" y1="82.8284" x2="805.828" y2="210.828" stroke="#4E505E" stroke-width="8"/>
<line x1="1719.83" y1="704.828" x2="1591.83" y2="832.828" stroke="#4E505E" stroke-width="8"/>
<path d="M1412.45 284C1388.12 298.449 1365.7 313.823 1348.57 336.771C1340.84 347.137 1332.77 361.83 1340.21 374.639C1347.14 386.567 1369.14 380.327 1371.08 367.491C1371.74 363.121 1368.39 359.506 1364.24 358.518C1355.85 356.522 1346.88 366.504 1341.58 371.293C1326.88 384.558 1312.68 398.466 1303.86 416.46C1298.54 427.325 1295.66 439.485 1292 450.982" stroke="#4E505E" stroke-width="8" stroke-linecap="round" stroke-linejoin="round"/>
<path d="M1380.2 267C1372.27 272.111 1364.38 276.875 1357.92 283.814C1356.03 285.843 1354.27 288.187 1352 289.699" stroke="#4E505E" stroke-width="8" stroke-linecap="round" stroke-linejoin="round"/>
<path fill-rule="evenodd" clip-rule="evenodd" d="M1206.21 334L1171.88 392.884C1168.26 399.087 1160.31 401.184 1154.1 397.568L1085.46 357.55C1079.25 353.934 1077.16 345.975 1080.77 339.772L1084.14 334L1206.21 334Z" fill="#4E505E"/>
<g clip-path="url(#clip1)">
<rect x="1175.27" y="180.183" width="94.8366" height="179.346" transform="rotate(30 1175.27 180.183)" fill="#F3F6E6"/>
<path d="M1253.75 219.091L1185.03 179.415C1178.4 175.59 1169.86 177.929 1165.99 184.626L1084.48 325.809C1080.61 332.508 1082.86 341.075 1089.48 344.899L1158.2 384.574C1164.83 388.4 1173.37 386.061 1177.24 379.365L1258.75 238.179C1262.62 231.483 1260.37 222.916 1253.75 219.091ZM1165.73 197.691L1247.57 244.944L1187.06 349.751L1105.22 302.498L1165.73 197.691ZM1181.84 184.931L1250.56 224.606C1254.18 226.696 1255.41 231.372 1253.3 235.029L1250.76 239.428L1168.91 192.175L1171.45 187.776C1173.56 184.119 1178.22 182.842 1181.84 184.931ZM1161.39 379.06L1092.67 339.383C1089.05 337.294 1087.83 332.619 1089.94 328.962L1102.03 308.014L1183.88 355.267L1171.78 376.215C1169.67 379.872 1165.01 381.148 1161.39 379.06Z" fill="#4E505E"/>
<path d="M1141.36 334.399C1135.34 330.924 1127.59 333.046 1124.08 339.13C1120.57 345.215 1122.6 352.988 1128.62 356.463C1134.64 359.938 1142.39 357.816 1145.9 351.731C1149.42 345.647 1147.38 337.873 1141.36 334.399ZM1131.81 350.947C1128.8 349.21 1127.78 345.323 1129.54 342.281C1131.29 339.238 1135.17 338.177 1138.18 339.915C1141.19 341.652 1142.21 345.539 1140.45 348.581C1138.69 351.623 1134.82 352.684 1131.81 350.947Z" fill="#4E505E"/>
<path d="M1200.51 206.743L1211.43 213.043C1212.93 213.914 1214.87 213.386 1215.75 211.86C1216.63 210.335 1216.12 208.398 1214.61 207.527L1203.7 201.227C1202.19 200.356 1200.26 200.884 1199.38 202.41C1198.5 203.935 1199 205.872 1200.51 206.743Z" fill="#4E505E"/>
<path d="M1219.61 217.769L1222.34 219.344C1223.85 220.215 1225.78 219.686 1226.66 218.161C1227.54 216.636 1227.03 214.699 1225.52 213.828L1222.8 212.253C1221.29 211.382 1219.36 211.91 1218.48 213.436C1217.59 214.961 1218.1 216.898 1219.61 217.769Z" fill="#4E505E"/>
<path d="M1284.71 253.772C1284.27 252.077 1282.55 251.082 1280.86 251.544C1279.17 252.007 1278.16 253.75 1278.6 255.444C1282.85 271.633 1273.17 288.399 1257.03 292.822C1255.34 293.284 1254.33 295.027 1254.77 296.722C1254.99 297.567 1255.54 298.24 1256.24 298.643C1256.93 299.047 1257.79 299.179 1258.63 298.949C1278.14 293.609 1289.84 273.34 1284.71 253.772Z" fill="#4E505E"/>
<path d="M1269.6 253.416C1269.16 251.722 1267.43 250.726 1265.74 251.189C1264.05 251.651 1263.05 253.394 1263.49 255.089C1264.9 260.449 1264.13 266.067 1261.34 270.904C1258.55 275.742 1254.06 279.212 1248.72 280.675C1247.03 281.138 1246.02 282.881 1246.47 284.575C1246.69 285.42 1247.23 286.094 1247.93 286.497C1248.63 286.9 1249.48 287.033 1250.33 286.802C1257.3 284.895 1263.15 280.365 1266.79 274.055C1270.44 267.744 1271.44 260.413 1269.6 253.416Z" fill="#4E505E"/>
<path d="M1141.12 176.065C1142.81 175.603 1143.81 173.86 1143.37 172.165C1142.92 170.471 1141.2 169.476 1139.51 169.938C1120 175.28 1108.3 195.547 1113.43 215.115C1113.65 215.96 1114.19 216.634 1114.89 217.037C1115.59 217.44 1116.44 217.573 1117.29 217.343C1118.97 216.88 1119.98 215.137 1119.54 213.443C1115.29 197.252 1124.97 180.486 1141.12 176.065Z" fill="#4E505E"/>
<path d="M1151.67 184.315C1151.23 182.62 1149.5 181.625 1147.81 182.087C1140.84 183.995 1134.99 188.525 1131.35 194.835C1127.7 201.146 1126.7 208.476 1128.54 215.474C1128.76 216.319 1129.3 216.992 1130 217.396C1130.7 217.799 1131.55 217.932 1132.4 217.701C1134.09 217.238 1135.09 215.495 1134.65 213.801C1133.24 208.441 1134.01 202.823 1136.8 197.985C1139.6 193.148 1144.07 189.676 1149.42 188.214C1151.11 187.753 1152.11 186.007 1151.67 184.315Z" fill="#4E505E"/>
</g>
<path d="M1449.55 612.709H1375.32C1372.68 622.947 1362.84 629.621 1352.35 628.288C1341.86 626.956 1334 618.034 1334 607.46C1334 596.889 1341.86 587.965 1352.35 586.635C1362.84 585.302 1372.68 591.976 1375.32 602.212H1449.55V549.725H1423.31C1414.61 549.725 1407.56 542.677 1407.56 533.979V486.741C1407.56 483.842 1405.21 481.492 1402.31 481.492H1375.32C1372.68 491.731 1362.84 498.404 1352.35 497.071C1341.86 495.739 1334 486.818 1334 476.243C1334 465.672 1341.86 456.748 1352.35 455.418C1362.84 454.085 1372.68 460.759 1375.32 470.995H1402.31C1411.01 470.995 1418.06 478.045 1418.06 486.741V533.979C1418.06 536.877 1420.41 539.227 1423.31 539.227H1449.55V491.989C1449.55 468.05 1492.42 450 1549.28 450C1606.13 450 1649 468.05 1649 491.989V722.931C1649 746.871 1606.13 764.921 1549.28 764.921C1492.42 764.921 1449.55 746.871 1449.55 722.931V696.688H1423.31C1420.41 696.688 1418.06 699.038 1418.06 701.936V733.428C1418.06 742.127 1411.01 749.174 1402.31 749.174H1375.32C1372.68 759.413 1362.84 766.087 1352.35 764.754C1341.86 763.421 1334 754.5 1334 743.926C1334 733.354 1341.86 724.43 1352.35 723.1C1362.84 721.768 1372.68 728.441 1375.32 738.677H1402.31C1405.21 738.677 1407.56 736.327 1407.56 733.428V701.936C1407.56 693.241 1414.61 686.19 1423.31 686.19H1449.55V612.709ZM1355.07 596.963C1349.28 596.963 1344.58 601.663 1344.58 607.46C1344.58 613.26 1349.28 617.958 1355.07 617.958C1360.87 617.958 1365.57 613.26 1365.57 607.46C1365.57 601.663 1360.87 596.963 1355.07 596.963ZM1355.07 465.746C1349.28 465.746 1344.58 470.446 1344.58 476.243C1344.58 482.043 1349.28 486.741 1355.07 486.741C1360.87 486.741 1365.57 482.043 1365.57 476.243C1365.57 470.446 1360.87 465.746 1355.07 465.746ZM1355.07 733.428C1349.28 733.428 1344.58 738.129 1344.58 743.926C1344.58 749.725 1349.28 754.423 1355.07 754.423C1360.87 754.423 1365.57 749.725 1365.57 743.926C1365.57 738.129 1360.87 733.428 1355.07 733.428ZM1549.28 460.497C1496.69 460.497 1460.05 477.094 1460.05 491.989C1460.05 506.887 1496.69 523.481 1549.28 523.481C1601.86 523.481 1638.5 506.887 1638.5 491.989C1638.5 477.094 1601.86 460.497 1549.28 460.497ZM1638.5 511.275C1622.46 524.973 1589.39 533.979 1549.28 533.979C1509.16 533.979 1476.09 524.973 1460.05 511.275V570.72C1460.05 585.617 1496.69 602.212 1549.28 602.212C1601.86 602.212 1638.5 585.617 1638.5 570.72V511.275ZM1549.28 754.423C1601.86 754.423 1638.5 737.829 1638.5 722.931V663.486C1622.46 677.185 1589.39 686.19 1549.28 686.19C1509.16 686.19 1476.09 677.185 1460.05 663.486V722.931C1460.05 737.829 1496.69 754.423 1549.28 754.423ZM1549.28 675.693C1601.86 675.693 1638.5 659.099 1638.5 644.201V590.005C1622.46 603.703 1589.39 612.709 1549.28 612.709C1509.16 612.709 1476.09 603.703 1460.05 590.005V644.201C1460.05 659.099 1496.69 675.693 1549.28 675.693Z" fill="#4E505E"/>
<path d="M1549.28 533.979C1589.39 533.979 1622.46 524.973 1638.5 511.275V570.719C1638.5 585.617 1601.86 602.212 1549.28 602.212C1496.69 602.212 1460.05 585.617 1460.05 570.719V511.275C1476.09 524.973 1509.16 533.979 1549.28 533.979Z" fill="#94DDCC"/>
<path d="M1549.28 610.439C1589.39 610.439 1622.46 601.434 1638.5 587.735V647.18C1638.5 662.078 1601.86 678.672 1549.28 678.672C1496.69 678.672 1460.05 662.078 1460.05 647.18V587.735C1476.09 601.434 1509.16 610.439 1549.28 610.439Z" fill="#94DDCC"/>
<path d="M1549.28 686.377C1589.39 686.377 1622.46 677.371 1638.5 663.673V723.118C1638.5 738.015 1601.86 754.61 1549.28 754.61C1496.69 754.61 1460.05 738.015 1460.05 723.118V663.673C1476.09 677.371 1509.16 686.377 1549.28 686.377Z" fill="#94DDCC"/>
<path d="M1360.32 470.996H1349.83V481.493H1360.32V470.996Z" fill="#4E505E"/>
<path d="M1360.32 602.213H1349.83V612.71H1360.32V602.213Z" fill="#4E505E"/>
<path d="M1360.32 738.678H1349.83V749.176H1360.32V738.678Z" fill="#4E505E"/>
<path d="M1459.16 492.111C1459.16 476.813 1496.11 459.767 1549.16 459.767C1602.2 459.767 1639.16 476.813 1639.16 492.111C1639.16 507.411 1602.2 524.454 1549.16 524.454C1496.11 524.454 1459.16 507.411 1459.16 492.111Z" fill="#94DDCC"/>
<rect x="1462" y="811.5" width="45" height="8" fill="#4E505E"/>
<rect x="1488.5" y="793" width="45" height="8" transform="rotate(90 1488.5 793)" fill="#4E505E"/>
<rect x="1171.7" y="109" width="45" height="8" transform="rotate(60 1171.7 109)" fill="#F3F6E6"/>
<rect x="1200.97" y="122.7" width="45" height="8" transform="rotate(150 1200.97 122.7)" fill="#F3F6E6"/>
<defs>
<clipPath id="clip0">
<rect width="216" height="216" fill="white" transform="translate(943.413 503) rotate(24.4531)"/>
</clipPath>
<clipPath id="clip1">
<rect width="189.012" height="191.085" fill="white" transform="translate(1137.54 152) rotate(30)"/>
</clipPath>
</defs>
</svg>
