<svg width="2466" height="930" viewBox="0 0 2466 930" fill="none" xmlns="http://www.w3.org/2000/svg">
<rect width="2466" height="930" fill="#A8C5FC"/>
<path d="M753.797 577.157C741.651 598.328 729.217 620.001 717 642V106.152C717 86.1859 732.002 70 750.508 70H1182C1134.1 119.383 1081.87 140.806 1035.79 159.71L1035.79 159.71L1035.79 159.711C1004.35 172.608 975.764 184.333 953.366 202.964C915.096 234.227 893.871 284.957 865.761 352.142C849.497 391.014 830.928 435.395 805.42 484.7C790.065 513.942 772.265 544.969 753.797 577.157Z" fill="#F3F6E6"/>
<path fill-rule="evenodd" clip-rule="evenodd" d="M1105 860.46H1657.25C1709.17 860.46 1751.25 818.375 1751.25 766.46V461.46C1751.25 437 1741.91 414.722 1726.6 398C1689.95 412.911 1653.24 432.962 1624.42 461.162C1570.38 513.419 1543.7 593.343 1521.06 661.203C1506.89 703.644 1494.3 741.366 1477.58 764.651C1450.33 801.659 1413.72 802.336 1362.3 803.288C1329.21 803.9 1289.99 804.625 1243.19 815.219C1200.69 825.058 1151.99 842.998 1105 860.46Z" fill="#F3F6E6"/>
<rect x="752" y="355" width="713" height="451" fill="#F3F6E6" stroke="#4E505E" stroke-width="8"/>
<rect x="752" y="355" width="713" height="85" fill="#F487B4" stroke="#4E505E" stroke-width="8"/>
<circle cx="787.861" cy="398.108" r="13.4105" stroke="#4E505E" stroke-width="7"/>
<circle cx="836.176" cy="398.108" r="13.4105" stroke="#4E505E" stroke-width="7"/>
<circle cx="884.492" cy="398.108" r="13.4105" stroke="#4E505E" stroke-width="7"/>
<circle cx="1162" cy="376" r="6" fill="#4E505E"/>
<circle cx="1162" cy="410" r="6" fill="#4E505E"/>
<circle cx="1162" cy="444" r="6" fill="#4E505E"/>
<circle cx="1162" cy="478" r="6" fill="#4E505E"/>
<circle cx="1162" cy="512" r="6" fill="#4E505E"/>
<circle cx="1162" cy="546" r="6" fill="#4E505E"/>
<circle cx="1162" cy="580" r="6" fill="#4E505E"/>
<circle cx="1162" cy="614" r="6" fill="#4E505E"/>
<circle cx="1162" cy="648" r="6" fill="#4E505E"/>
<circle cx="1162" cy="682" r="6" fill="#4E505E"/>
<circle cx="1162" cy="716" r="6" fill="#4E505E"/>
<circle cx="1162" cy="750" r="6" fill="#4E505E"/>
<circle cx="1162" cy="784" r="6" fill="#4E505E"/>
<circle cx="1196" cy="376" r="6" fill="#4E505E"/>
<circle cx="1196" cy="410" r="6" fill="#4E505E"/>
<circle cx="1196" cy="444" r="6" fill="#4E505E"/>
<circle cx="1196" cy="478" r="6" fill="#4E505E"/>
<circle cx="1196" cy="512" r="6" fill="#4E505E"/>
<circle cx="1196" cy="546" r="6" fill="#4E505E"/>
<circle cx="1196" cy="580" r="6" fill="#4E505E"/>
<circle cx="1196" cy="614" r="6" fill="#4E505E"/>
<circle cx="1196" cy="648" r="6" fill="#4E505E"/>
<circle cx="1196" cy="682" r="6" fill="#4E505E"/>
<circle cx="1196" cy="716" r="6" fill="#4E505E"/>
<circle cx="1196" cy="750" r="6" fill="#4E505E"/>
<circle cx="1196" cy="784" r="6" fill="#4E505E"/>
<circle cx="1230" cy="376" r="6" fill="#4E505E"/>
<circle cx="1230" cy="410" r="6" fill="#4E505E"/>
<circle cx="1230" cy="444" r="6" fill="#4E505E"/>
<circle cx="1230" cy="478" r="6" fill="#4E505E"/>
<circle cx="1230" cy="512" r="6" fill="#4E505E"/>
<circle cx="1230" cy="546" r="6" fill="#4E505E"/>
<circle cx="1230" cy="580" r="6" fill="#4E505E"/>
<circle cx="1230" cy="614" r="6" fill="#4E505E"/>
<circle cx="1230" cy="648" r="6" fill="#4E505E"/>
<circle cx="1230" cy="682" r="6" fill="#4E505E"/>
<circle cx="1230" cy="716" r="6" fill="#4E505E"/>
<circle cx="1230" cy="750" r="6" fill="#4E505E"/>
<circle cx="1230" cy="784" r="6" fill="#4E505E"/>
<circle cx="1264" cy="376" r="6" fill="#4E505E"/>
<circle cx="1264" cy="410" r="6" fill="#4E505E"/>
<circle cx="1264" cy="444" r="6" fill="#4E505E"/>
<circle cx="1264" cy="478" r="6" fill="#4E505E"/>
<circle cx="1264" cy="512" r="6" fill="#4E505E"/>
<circle cx="1264" cy="546" r="6" fill="#4E505E"/>
<circle cx="1264" cy="580" r="6" fill="#4E505E"/>
<circle cx="1264" cy="614" r="6" fill="#4E505E"/>
<circle cx="1264" cy="648" r="6" fill="#4E505E"/>
<circle cx="1264" cy="682" r="6" fill="#4E505E"/>
<circle cx="1264" cy="716" r="6" fill="#4E505E"/>
<circle cx="1264" cy="750" r="6" fill="#4E505E"/>
<circle cx="1264" cy="784" r="6" fill="#4E505E"/>
<circle cx="1298" cy="376" r="6" fill="#4E505E"/>
<circle cx="1298" cy="410" r="6" fill="#4E505E"/>
<circle cx="1298" cy="444" r="6" fill="#4E505E"/>
<circle cx="1298" cy="478" r="6" fill="#4E505E"/>
<circle cx="1298" cy="512" r="6" fill="#4E505E"/>
<circle cx="1298" cy="546" r="6" fill="#4E505E"/>
<circle cx="1298" cy="580" r="6" fill="#4E505E"/>
<circle cx="1298" cy="614" r="6" fill="#4E505E"/>
<circle cx="1298" cy="648" r="6" fill="#4E505E"/>
<circle cx="1298" cy="682" r="6" fill="#4E505E"/>
<circle cx="1298" cy="716" r="6" fill="#4E505E"/>
<circle cx="1298" cy="750" r="6" fill="#4E505E"/>
<circle cx="1298" cy="784" r="6" fill="#4E505E"/>
<circle cx="1332" cy="376" r="6" fill="#4E505E"/>
<circle cx="1332" cy="410" r="6" fill="#4E505E"/>
<circle cx="1332" cy="444" r="6" fill="#4E505E"/>
<circle cx="1332" cy="478" r="6" fill="#4E505E"/>
<circle cx="1332" cy="512" r="6" fill="#4E505E"/>
<circle cx="1332" cy="546" r="6" fill="#4E505E"/>
<circle cx="1332" cy="580" r="6" fill="#4E505E"/>
<circle cx="1332" cy="614" r="6" fill="#4E505E"/>
<circle cx="1332" cy="648" r="6" fill="#4E505E"/>
<circle cx="1332" cy="682" r="6" fill="#4E505E"/>
<circle cx="1332" cy="716" r="6" fill="#4E505E"/>
<circle cx="1332" cy="750" r="6" fill="#4E505E"/>
<circle cx="1332" cy="784" r="6" fill="#4E505E"/>
<circle cx="1366" cy="376" r="6" fill="#4E505E"/>
<circle cx="1366" cy="410" r="6" fill="#4E505E"/>
<circle cx="1366" cy="444" r="6" fill="#4E505E"/>
<circle cx="1366" cy="478" r="6" fill="#4E505E"/>
<circle cx="1366" cy="512" r="6" fill="#4E505E"/>
<circle cx="1366" cy="546" r="6" fill="#4E505E"/>
<circle cx="1366" cy="580" r="6" fill="#4E505E"/>
<circle cx="1366" cy="614" r="6" fill="#4E505E"/>
<circle cx="1366" cy="648" r="6" fill="#4E505E"/>
<circle cx="1366" cy="682" r="6" fill="#4E505E"/>
<circle cx="1366" cy="716" r="6" fill="#4E505E"/>
<circle cx="1366" cy="750" r="6" fill="#4E505E"/>
<circle cx="1366" cy="784" r="6" fill="#4E505E"/>
<circle cx="1400" cy="376" r="6" fill="#4E505E"/>
<circle cx="1400" cy="410" r="6" fill="#4E505E"/>
<circle cx="1400" cy="444" r="6" fill="#4E505E"/>
<circle cx="1400" cy="478" r="6" fill="#4E505E"/>
<circle cx="1400" cy="512" r="6" fill="#4E505E"/>
<circle cx="1400" cy="546" r="6" fill="#4E505E"/>
<circle cx="1400" cy="580" r="6" fill="#4E505E"/>
<circle cx="1400" cy="614" r="6" fill="#4E505E"/>
<circle cx="1400" cy="648" r="6" fill="#4E505E"/>
<circle cx="1400" cy="682" r="6" fill="#4E505E"/>
<circle cx="1400" cy="716" r="6" fill="#4E505E"/>
<circle cx="1400" cy="750" r="6" fill="#4E505E"/>
<circle cx="1400" cy="784" r="6" fill="#4E505E"/>
<circle cx="1434" cy="376" r="6" fill="#4E505E"/>
<circle cx="1434" cy="410" r="6" fill="#4E505E"/>
<circle cx="1434" cy="444" r="6" fill="#4E505E"/>
<circle cx="1434" cy="478" r="6" fill="#4E505E"/>
<circle cx="1434" cy="512" r="6" fill="#4E505E"/>
<circle cx="1434" cy="546" r="6" fill="#4E505E"/>
<circle cx="1434" cy="580" r="6" fill="#4E505E"/>
<circle cx="1434" cy="614" r="6" fill="#4E505E"/>
<circle cx="1434" cy="648" r="6" fill="#4E505E"/>
<circle cx="1434" cy="682" r="6" fill="#4E505E"/>
<circle cx="1434" cy="716" r="6" fill="#4E505E"/>
<circle cx="1434" cy="750" r="6" fill="#4E505E"/>
<circle cx="1434" cy="784" r="6" fill="#4E505E"/>
<rect x="1182" y="351" width="287" height="299" fill="#4E505E"/>
<rect x="1205" y="172" width="477" height="451" fill="#F3F6E6" stroke="#4E505E" stroke-width="8"/>
<rect x="1205" y="172" width="477" height="85" fill="#FCEC7F" stroke="#4E505E" stroke-width="8"/>
<circle cx="1240.86" cy="215.108" r="13.4105" stroke="#4E505E" stroke-width="7"/>
<circle cx="1289.18" cy="215.108" r="13.4105" stroke="#4E505E" stroke-width="7"/>
<circle cx="1337.49" cy="215.108" r="13.4105" stroke="#4E505E" stroke-width="7"/>
<path d="M1407.37 349H1345.99C1343.79 349 1342 350.788 1342 352.994V394.128C1342 396.333 1343.79 398.122 1345.99 398.122H1407.37C1409.58 398.122 1411.36 396.333 1411.36 394.128V352.994C1411.36 350.788 1409.58 349 1407.37 349ZM1403.38 390.135H1349.99V356.987H1403.38V390.135Z" fill="#4E505E"/>
<path d="M1542.01 349H1421.29C1419.09 349 1417.3 350.788 1417.3 352.994V394.128C1417.3 396.333 1419.09 398.122 1421.29 398.122H1542.01C1544.21 398.122 1546 396.333 1546 394.128V352.994C1546 350.788 1544.21 349 1542.01 349ZM1538.01 390.135H1425.28V356.987H1538.01V390.135Z" fill="#4E505E"/>
<path d="M1443.48 372.782C1443.42 372.527 1443.35 372.275 1443.25 372.035C1443.15 371.792 1443.03 371.561 1442.88 371.345C1442.74 371.125 1442.57 370.921 1442.39 370.737C1442.2 370.554 1442 370.386 1441.78 370.242C1441.56 370.099 1441.33 369.975 1441.09 369.875C1440.85 369.775 1440.6 369.695 1440.34 369.643C1439.83 369.543 1439.3 369.543 1438.78 369.643C1438.53 369.695 1438.28 369.775 1438.03 369.875C1437.79 369.975 1437.56 370.099 1437.35 370.242C1437.13 370.386 1436.92 370.554 1436.74 370.737C1436.56 370.921 1436.39 371.125 1436.24 371.345C1436.1 371.561 1435.97 371.792 1435.87 372.035C1435.77 372.275 1435.7 372.527 1435.65 372.782C1435.59 373.038 1435.57 373.301 1435.57 373.561C1435.57 373.82 1435.59 374.084 1435.65 374.34C1435.7 374.595 1435.77 374.846 1435.87 375.09C1435.97 375.33 1436.1 375.561 1436.24 375.777C1436.39 375.997 1436.56 376.2 1436.74 376.384C1437.48 377.127 1438.51 377.554 1439.56 377.554C1439.82 377.554 1440.09 377.53 1440.34 377.479C1440.6 377.427 1440.85 377.347 1441.09 377.247C1441.33 377.147 1441.56 377.027 1441.78 376.88C1442 376.736 1442.2 376.568 1442.39 376.384C1442.57 376.201 1442.74 375.997 1442.88 375.777C1443.03 375.562 1443.15 375.33 1443.25 375.09C1443.35 374.847 1443.42 374.595 1443.48 374.34C1443.53 374.084 1443.56 373.82 1443.56 373.561C1443.56 373.301 1443.53 373.037 1443.48 372.782Z" fill="#4E505E"/>
<path d="M1521.77 369.567H1454.7C1452.5 369.567 1450.71 371.356 1450.71 373.561C1450.71 375.766 1452.5 377.555 1454.7 377.555H1521.77C1523.97 377.555 1525.76 375.766 1525.76 373.561C1525.76 371.356 1523.97 369.567 1521.77 369.567Z" fill="#4E505E"/>
<line x1="1703.83" y1="644.828" x2="1639.83" y2="708.828" stroke="#4E505E" stroke-width="8"/>
<line x1="1703.83" y1="718.828" x2="1575.83" y2="846.828" stroke="#4E505E" stroke-width="8"/>
<line x1="907.828" y1="209.828" x2="850.828" y2="266.828" stroke="#4E505E" stroke-width="8"/>
<line x1="907.828" y1="209.828" x2="850.828" y2="266.828" stroke="#4E505E" stroke-width="8"/>
<circle cx="826.5" cy="138.5" r="64.5" fill="#A8C5FC" stroke="#4E505E" stroke-width="8"/>
<path fill-rule="evenodd" clip-rule="evenodd" d="M1685 473.132L1571.38 421.798C1565.75 419.993 1560.48 425.738 1562.42 430.885L1623.49 592.522C1624.85 596.139 1628.9 597.967 1632.51 596.601C1634.21 595.958 1635.6 594.685 1636.18 593.388L1658.14 552.451L1685 580.403V473.132Z" fill="#4E505E"/>
<path d="M1742.3 460.405L1579.38 386.798C1573.75 384.993 1568.48 390.738 1570.42 395.885L1631.49 557.522C1632.85 561.139 1636.9 562.967 1640.51 561.601C1642.21 560.958 1643.6 559.685 1644.18 558.388L1666.14 517.451L1716.46 569.818C1717.32 570.712 1718.49 571.229 1719.73 571.26C1720.33 571.262 1720.92 571.16 1721.47 570.952C1722.05 570.731 1722.59 570.387 1723.05 569.944L1746.61 547.265C1748.47 545.485 1748.53 542.526 1746.74 540.666L1698.03 489.949L1741.87 473.384C1745.49 472.018 1747.31 467.974 1745.95 464.357C1745.55 463.3 1744.68 461.811 1742.3 460.405Z" fill="#94DDCC"/>
<circle cx="959.5" cy="308.5" r="7.5" fill="#4E505E"/>
<rect x="819" y="498" width="288" height="83" rx="37" fill="#94DDCC"/>
<rect x="943" y="502" width="131" height="75" rx="37.5" fill="#FCEC7F" stroke="#4E505E" stroke-width="8"/>
<rect x="1336" y="748" width="282" height="90" fill="#FCEC7F" stroke="#4E505E" stroke-width="8"/>
<rect x="1336" y="748" width="129" height="58" fill="#94DDCC" stroke="#4E505E" stroke-width="8"/>
<path d="M1152.04 238.994L1163.83 236.604C1169.39 235.476 1169.39 227.524 1163.83 226.396L1152.04 224.006C1140.43 221.651 1131.35 212.574 1128.99 200.959L1126.6 189.173C1125.48 183.609 1117.52 183.609 1116.4 189.173L1114.01 200.959C1111.65 212.574 1102.57 221.651 1090.96 224.006L1079.17 226.396C1073.61 227.524 1073.61 235.476 1079.17 236.604L1090.96 238.994C1102.57 241.349 1111.65 250.426 1114.01 262.041L1116.4 273.827C1117.52 279.391 1125.48 279.391 1126.6 273.827L1128.99 262.041C1131.35 250.426 1140.43 241.349 1152.04 238.994Z" fill="#FCEC7F"/>
</svg>
