<svg width="2466" height="860" viewBox="0 0 2466 860" fill="none" xmlns="http://www.w3.org/2000/svg">
<path d="M1526.73 184.734C1623.17 210.033 1776.52 166.55 1810.51 199.755C1843.71 232.96 1757.55 344.434 1726.72 436.934C1695.1 530.225 1718.82 604.541 1696.69 659.092C1675.34 713.643 1608.94 747.639 1544.12 772.938C1479.31 797.446 1416.86 812.467 1354.41 810.886C1292.75 809.305 1231.1 791.121 1174.18 761.869C1117.27 733.408 1064.31 693.087 965.498 640.117C866.689 587.147 722.032 520.737 670.652 425.075C618.48 329.413 659.585 203.708 761.556 157.063C864.317 110.418 1027.95 142.832 1137.03 124.649C1246.12 105.674 1299.87 36.8923 1345.72 49.5418C1392.35 62.982 1431.09 158.644 1526.73 184.734Z" fill="#F3F6E6"/>
<rect x="872" y="229" width="116" height="120" fill="#4E505E" stroke="#4E505E" stroke-width="8"/>
<rect x="879" y="224" width="116" height="120" fill="#F487B4" stroke="#4E505E" stroke-width="8"/>
<rect x="896" y="280" width="83" height="9" fill="#4E505E"/>
<rect x="896" y="280" width="83" height="9" fill="#4E505E"/>
<rect x="942" y="242" width="85" height="8" transform="rotate(90 942 242)" fill="#4E505E"/>
<rect x="942" y="242" width="85" height="8" transform="rotate(90 942 242)" fill="#4E505E"/>
<rect x="1151.11" y="409.163" width="364.891" height="194.837" fill="#94DDCC" stroke="#4E505E" stroke-width="8"/>
<ellipse cx="1321.46" cy="436.369" rx="6.04688" ry="6.24113" fill="#4E505E"/>
<ellipse cx="1321.46" cy="471.735" rx="6.04688" ry="6.24113" fill="#4E505E"/>
<ellipse cx="1321.46" cy="507.102" rx="6.04688" ry="6.24113" fill="#4E505E"/>
<ellipse cx="1321.46" cy="542.468" rx="6.04688" ry="6.24113" fill="#4E505E"/>
<ellipse cx="1321.46" cy="577.835" rx="6.04688" ry="6.24113" fill="#4E505E"/>
<ellipse cx="1355.73" cy="436.369" rx="6.04688" ry="6.24113" fill="#4E505E"/>
<ellipse cx="1355.73" cy="471.735" rx="6.04688" ry="6.24113" fill="#4E505E"/>
<ellipse cx="1355.73" cy="507.102" rx="6.04688" ry="6.24113" fill="#4E505E"/>
<ellipse cx="1355.73" cy="542.468" rx="6.04688" ry="6.24113" fill="#4E505E"/>
<ellipse cx="1355.73" cy="577.835" rx="6.04688" ry="6.24113" fill="#4E505E"/>
<ellipse cx="1389.99" cy="436.369" rx="6.04688" ry="6.24113" fill="#4E505E"/>
<ellipse cx="1389.99" cy="471.735" rx="6.04688" ry="6.24113" fill="#4E505E"/>
<ellipse cx="1389.99" cy="507.102" rx="6.04688" ry="6.24113" fill="#4E505E"/>
<ellipse cx="1389.99" cy="542.468" rx="6.04688" ry="6.24113" fill="#4E505E"/>
<ellipse cx="1389.99" cy="577.835" rx="6.04688" ry="6.24113" fill="#4E505E"/>
<ellipse cx="1424.26" cy="436.369" rx="6.04688" ry="6.24113" fill="#4E505E"/>
<ellipse cx="1424.26" cy="471.735" rx="6.04688" ry="6.24113" fill="#4E505E"/>
<ellipse cx="1424.26" cy="507.102" rx="6.04688" ry="6.24113" fill="#4E505E"/>
<ellipse cx="1424.26" cy="542.468" rx="6.04688" ry="6.24113" fill="#4E505E"/>
<ellipse cx="1424.26" cy="577.835" rx="6.04688" ry="6.24113" fill="#4E505E"/>
<ellipse cx="1458.52" cy="436.369" rx="6.04688" ry="6.24113" fill="#4E505E"/>
<ellipse cx="1458.52" cy="471.735" rx="6.04688" ry="6.24113" fill="#4E505E"/>
<ellipse cx="1458.52" cy="507.102" rx="6.04688" ry="6.24113" fill="#4E505E"/>
<ellipse cx="1458.52" cy="542.468" rx="6.04688" ry="6.24113" fill="#4E505E"/>
<ellipse cx="1458.52" cy="577.835" rx="6.04688" ry="6.24113" fill="#4E505E"/>
<ellipse cx="1492.79" cy="436.369" rx="6.04688" ry="6.24113" fill="#4E505E"/>
<ellipse cx="1492.79" cy="471.735" rx="6.04688" ry="6.24113" fill="#4E505E"/>
<ellipse cx="1492.79" cy="507.102" rx="6.04688" ry="6.24113" fill="#4E505E"/>
<ellipse cx="1492.79" cy="542.468" rx="6.04688" ry="6.24113" fill="#4E505E"/>
<ellipse cx="1492.79" cy="577.835" rx="6.04688" ry="6.24113" fill="#4E505E"/>
<rect x="1055.37" y="539.187" width="245.969" height="64.8132" fill="#94DDCC" stroke="#4E505E" stroke-width="8"/>
<rect x="1096.69" y="474.695" width="245.969" height="64.8132" fill="#94DDCC" stroke="#4E505E" stroke-width="8"/>
<rect x="1151.11" y="409.163" width="245.969" height="64.8132" fill="#94DDCC" stroke="#4E505E" stroke-width="8"/>
<path d="M1144.67 433.535L1144.54 433.469L1144.41 433.412C1144.36 433.39 1144.13 433.268 1143.85 432.955C1143.57 432.655 1143.32 432.269 1143.15 431.846C1142.43 430.083 1143.28 428.242 1144.75 427.618L1305.39 359.409C1306.23 359.053 1307.4 359.205 1308.44 360.174C1309.41 361.07 1309.85 362.306 1309.58 363.536L1241.59 534.529C1241.16 535.304 1240.77 535.735 1240.51 535.976C1240.24 536.226 1240.01 536.345 1239.83 536.42C1238.36 537.044 1236.49 536.359 1235.77 534.595L1217.47 489.515L1215.16 483.838L1210.93 488.314L1161.61 540.428L1161.61 540.431C1161.4 540.653 1160.98 540.732 1160.64 540.388L1160.63 540.379L1136.92 516.566C1136.81 516.459 1136.74 516.348 1136.7 516.252C1136.66 516.158 1136.63 516.035 1136.62 515.886C1136.63 515.651 1136.72 515.466 1136.83 515.345L1136.84 515.341L1187.76 461.514L1191.47 457.595L1186.73 455.161L1144.67 433.535Z" fill="#F3F6E6" stroke="#4E505E" stroke-width="8"/>
<path d="M1445.68 278.045L1445.68 278.045L1458.61 275.347C1458.61 275.347 1458.61 275.347 1458.61 275.347C1459.15 275.233 1459.44 274.992 1459.63 274.739C1459.85 274.444 1460 274.009 1460 273.5C1460 272.991 1459.85 272.556 1459.63 272.261C1459.44 272.008 1459.15 271.767 1458.61 271.653C1458.61 271.653 1458.61 271.653 1458.61 271.653L1445.68 268.955L1446.5 265.039L1445.68 268.955C1431.31 265.956 1420.18 254.426 1417.29 239.792L1417.29 239.792L1414.67 226.485C1414.67 226.485 1414.67 226.485 1414.67 226.484C1414.28 224.505 1411.72 224.505 1411.33 226.484C1411.33 226.485 1411.33 226.485 1411.33 226.485L1408.71 239.792L1408.71 239.792C1405.82 254.426 1394.69 265.956 1380.32 268.955L1380.32 268.955L1367.39 271.653C1366.85 271.767 1366.56 272.008 1366.37 272.261C1366.15 272.556 1366 272.991 1366 273.5C1366 274.009 1366.15 274.444 1366.37 274.739C1366.56 274.992 1366.85 275.233 1367.39 275.347L1380.32 278.045L1380.32 278.045C1394.69 281.044 1405.82 292.574 1408.71 307.208L1404.78 307.981L1408.71 307.208L1411.33 320.515C1411.33 320.515 1411.33 320.515 1411.33 320.516C1411.72 322.495 1414.28 322.495 1414.67 320.516L1445.68 278.045ZM1445.68 278.045C1431.31 281.044 1420.18 292.574 1417.29 307.208C1417.29 307.209 1417.29 307.209 1417.29 307.209L1414.67 320.515L1445.68 278.045Z" fill="#FCEC7F" stroke="#4E505E" stroke-width="8"/>
<path d="M1380.59 223.276L1380.59 223.276C1372.7 224.94 1366.66 231.316 1365.1 239.311C1365.1 239.311 1365.1 239.311 1365.1 239.311L1365 239.839L1364.9 239.311L1364.9 239.311C1363.34 231.316 1357.3 224.94 1349.41 223.276L1349.41 223.276L1348.1 223L1349.41 222.724L1349.41 222.724C1357.3 221.06 1363.34 214.684 1364.9 206.689L1364.9 206.689L1365 206.161L1365.1 206.689L1365.1 206.689C1366.66 214.684 1372.7 221.06 1380.59 222.724L1380.59 222.724L1381.9 223L1380.59 223.276Z" fill="#FCEC7F" stroke="#4E505E" stroke-width="8"/>
<path d="M1493.44 248.273L1493.44 248.273C1485.46 249.923 1479.28 256.263 1477.69 264.296C1477.69 264.296 1477.69 264.296 1477.69 264.297L1477.5 265.234L1477.31 264.296L1477.31 264.296C1475.72 256.263 1469.54 249.923 1461.56 248.273L1461.56 248.273L1460.24 248L1461.56 247.727L1461.56 247.727C1469.54 246.077 1475.72 239.737 1477.31 231.704L1477.31 231.704L1477.5 230.766L1477.69 231.704L1477.69 231.704C1479.28 239.737 1485.46 246.077 1493.44 247.727L1493.44 247.727L1494.76 248L1493.44 248.273Z" fill="#FCEC7F" stroke="#4E505E" stroke-width="8"/>
<line x1="1084.83" y1="395.828" x2="956.828" y2="523.828" stroke="#4E505E" stroke-width="8"/>
<line x1="1053.83" y1="467.828" x2="1001.83" y2="519.828" stroke="#4E505E" stroke-width="8"/>
</svg>
