<svg width="2466" height="860" viewBox="0 0 2466 860" fill="none" xmlns="http://www.w3.org/2000/svg">
<g clip-path="url(#clip0)">
<path d="M730.812 515.28C743.194 450.465 860.258 377.652 907.783 294.675C955.308 211.698 933.295 118.558 967.584 86.5487C1001.34 55.0239 1091.93 84.1458 1160.43 104.993C1228.45 125.305 1273.9 136.806 1364.66 110.209C1454.41 83.5614 1588.95 19.3003 1628.93 48.419C1668.38 78.022 1612.78 200.469 1611.03 298.543C1608.8 396.081 1660.43 469.245 1677.54 558.047C1695.19 646.365 1678.33 750.321 1610.25 772.952C1542.66 796.119 1423.3 738.446 1326.3 746.321C1229.34 753.177 1153.66 826.55 1087.6 828.833C1021 831.6 962.475 763.71 887.329 701.115C812.184 638.519 718.914 580.631 730.812 515.28Z" fill="#F3F6E6"/>
<circle cx="1363" cy="395" r="6" transform="rotate(90 1363 395)" fill="#4E505E"/>
<circle cx="1329" cy="395" r="6" transform="rotate(90 1329 395)" fill="#4E505E"/>
<circle cx="1295" cy="395" r="6" transform="rotate(90 1295 395)" fill="#4E505E"/>
<circle cx="1261" cy="395" r="6" transform="rotate(90 1261 395)" fill="#4E505E"/>
<circle cx="1227" cy="395" r="6" transform="rotate(90 1227 395)" fill="#4E505E"/>
<circle cx="1193" cy="395" r="6" transform="rotate(90 1193 395)" fill="#4E505E"/>
<circle cx="1159" cy="395" r="6" transform="rotate(90 1159 395)" fill="#4E505E"/>
<circle cx="1125" cy="395" r="6" transform="rotate(90 1125 395)" fill="#4E505E"/>
<circle cx="1091" cy="395" r="6" transform="rotate(90 1091 395)" fill="#4E505E"/>
<circle cx="1057" cy="395" r="6" transform="rotate(90 1057 395)" fill="#4E505E"/>
<circle cx="1023" cy="395" r="6" transform="rotate(90 1023 395)" fill="#4E505E"/>
<circle cx="989" cy="395" r="6" transform="rotate(90 989 395)" fill="#4E505E"/>
<circle cx="955" cy="395" r="6" transform="rotate(90 955 395)" fill="#4E505E"/>
<circle cx="921" cy="395" r="6" transform="rotate(90 921 395)" fill="#4E505E"/>
<circle cx="887" cy="395" r="6" transform="rotate(90 887 395)" fill="#4E505E"/>
<circle cx="1363" cy="429" r="6" transform="rotate(90 1363 429)" fill="#4E505E"/>
<circle cx="1329" cy="429" r="6" transform="rotate(90 1329 429)" fill="#4E505E"/>
<circle cx="1295" cy="429" r="6" transform="rotate(90 1295 429)" fill="#4E505E"/>
<circle cx="1261" cy="429" r="6" transform="rotate(90 1261 429)" fill="#4E505E"/>
<circle cx="1227" cy="429" r="6" transform="rotate(90 1227 429)" fill="#4E505E"/>
<circle cx="1193" cy="429" r="6" transform="rotate(90 1193 429)" fill="#4E505E"/>
<circle cx="1159" cy="429" r="6" transform="rotate(90 1159 429)" fill="#4E505E"/>
<circle cx="1125" cy="429" r="6" transform="rotate(90 1125 429)" fill="#4E505E"/>
<circle cx="1091" cy="429" r="6" transform="rotate(90 1091 429)" fill="#4E505E"/>
<circle cx="1057" cy="429" r="6" transform="rotate(90 1057 429)" fill="#4E505E"/>
<circle cx="1023" cy="429" r="6" transform="rotate(90 1023 429)" fill="#4E505E"/>
<circle cx="989" cy="429" r="6" transform="rotate(90 989 429)" fill="#4E505E"/>
<circle cx="955" cy="429" r="6" transform="rotate(90 955 429)" fill="#4E505E"/>
<circle cx="921" cy="429" r="6" transform="rotate(90 921 429)" fill="#4E505E"/>
<circle cx="887" cy="429" r="6" transform="rotate(90 887 429)" fill="#4E505E"/>
<circle cx="1363" cy="463" r="6" transform="rotate(90 1363 463)" fill="#4E505E"/>
<circle cx="1329" cy="463" r="6" transform="rotate(90 1329 463)" fill="#4E505E"/>
<circle cx="1295" cy="463" r="6" transform="rotate(90 1295 463)" fill="#4E505E"/>
<circle cx="1261" cy="463" r="6" transform="rotate(90 1261 463)" fill="#4E505E"/>
<circle cx="1227" cy="463" r="6" transform="rotate(90 1227 463)" fill="#4E505E"/>
<circle cx="1193" cy="463" r="6" transform="rotate(90 1193 463)" fill="#4E505E"/>
<circle cx="1159" cy="463" r="6" transform="rotate(90 1159 463)" fill="#4E505E"/>
<circle cx="1125" cy="463" r="6" transform="rotate(90 1125 463)" fill="#4E505E"/>
<circle cx="1091" cy="463" r="6" transform="rotate(90 1091 463)" fill="#4E505E"/>
<circle cx="1057" cy="463" r="6" transform="rotate(90 1057 463)" fill="#4E505E"/>
<circle cx="1023" cy="463" r="6" transform="rotate(90 1023 463)" fill="#4E505E"/>
<circle cx="989" cy="463" r="6" transform="rotate(90 989 463)" fill="#4E505E"/>
<circle cx="955" cy="463" r="6" transform="rotate(90 955 463)" fill="#4E505E"/>
<circle cx="921" cy="463" r="6" transform="rotate(90 921 463)" fill="#4E505E"/>
<circle cx="887" cy="463" r="6" transform="rotate(90 887 463)" fill="#4E505E"/>
<circle cx="1363" cy="497" r="6" transform="rotate(90 1363 497)" fill="#4E505E"/>
<circle cx="1329" cy="497" r="6" transform="rotate(90 1329 497)" fill="#4E505E"/>
<circle cx="1295" cy="497" r="6" transform="rotate(90 1295 497)" fill="#4E505E"/>
<circle cx="1261" cy="497" r="6" transform="rotate(90 1261 497)" fill="#4E505E"/>
<circle cx="1227" cy="497" r="6" transform="rotate(90 1227 497)" fill="#4E505E"/>
<circle cx="1193" cy="497" r="6" transform="rotate(90 1193 497)" fill="#4E505E"/>
<circle cx="1159" cy="497" r="6" transform="rotate(90 1159 497)" fill="#4E505E"/>
<circle cx="1125" cy="497" r="6" transform="rotate(90 1125 497)" fill="#4E505E"/>
<circle cx="1091" cy="497" r="6" transform="rotate(90 1091 497)" fill="#4E505E"/>
<circle cx="1057" cy="497" r="6" transform="rotate(90 1057 497)" fill="#4E505E"/>
<circle cx="1023" cy="497" r="6" transform="rotate(90 1023 497)" fill="#4E505E"/>
<circle cx="989" cy="497" r="6" transform="rotate(90 989 497)" fill="#4E505E"/>
<circle cx="955" cy="497" r="6" transform="rotate(90 955 497)" fill="#4E505E"/>
<circle cx="921" cy="497" r="6" transform="rotate(90 921 497)" fill="#4E505E"/>
<circle cx="887" cy="497" r="6" transform="rotate(90 887 497)" fill="#4E505E"/>
<circle cx="1363" cy="531" r="6" transform="rotate(90 1363 531)" fill="#4E505E"/>
<circle cx="1329" cy="531" r="6" transform="rotate(90 1329 531)" fill="#4E505E"/>
<circle cx="1295" cy="531" r="6" transform="rotate(90 1295 531)" fill="#4E505E"/>
<circle cx="1261" cy="531" r="6" transform="rotate(90 1261 531)" fill="#4E505E"/>
<circle cx="1227" cy="531" r="6" transform="rotate(90 1227 531)" fill="#4E505E"/>
<circle cx="1193" cy="531" r="6" transform="rotate(90 1193 531)" fill="#4E505E"/>
<circle cx="1159" cy="531" r="6" transform="rotate(90 1159 531)" fill="#4E505E"/>
<circle cx="1125" cy="531" r="6" transform="rotate(90 1125 531)" fill="#4E505E"/>
<circle cx="1091" cy="531" r="6" transform="rotate(90 1091 531)" fill="#4E505E"/>
<circle cx="1057" cy="531" r="6" transform="rotate(90 1057 531)" fill="#4E505E"/>
<circle cx="1023" cy="531" r="6" transform="rotate(90 1023 531)" fill="#4E505E"/>
<circle cx="989" cy="531" r="6" transform="rotate(90 989 531)" fill="#4E505E"/>
<circle cx="955" cy="531" r="6" transform="rotate(90 955 531)" fill="#4E505E"/>
<circle cx="921" cy="531" r="6" transform="rotate(90 921 531)" fill="#4E505E"/>
<circle cx="887" cy="531" r="6" transform="rotate(90 887 531)" fill="#4E505E"/>
<circle cx="1363" cy="565" r="6" transform="rotate(90 1363 565)" fill="#4E505E"/>
<circle cx="1329" cy="565" r="6" transform="rotate(90 1329 565)" fill="#4E505E"/>
<circle cx="1295" cy="565" r="6" transform="rotate(90 1295 565)" fill="#4E505E"/>
<circle cx="1261" cy="565" r="6" transform="rotate(90 1261 565)" fill="#4E505E"/>
<circle cx="1227" cy="565" r="6" transform="rotate(90 1227 565)" fill="#4E505E"/>
<circle cx="1193" cy="565" r="6" transform="rotate(90 1193 565)" fill="#4E505E"/>
<circle cx="1159" cy="565" r="6" transform="rotate(90 1159 565)" fill="#4E505E"/>
<circle cx="1125" cy="565" r="6" transform="rotate(90 1125 565)" fill="#4E505E"/>
<circle cx="1091" cy="565" r="6" transform="rotate(90 1091 565)" fill="#4E505E"/>
<circle cx="1057" cy="565" r="6" transform="rotate(90 1057 565)" fill="#4E505E"/>
<circle cx="1023" cy="565" r="6" transform="rotate(90 1023 565)" fill="#4E505E"/>
<circle cx="989" cy="565" r="6" transform="rotate(90 989 565)" fill="#4E505E"/>
<circle cx="955" cy="565" r="6" transform="rotate(90 955 565)" fill="#4E505E"/>
<circle cx="921" cy="565" r="6" transform="rotate(90 921 565)" fill="#4E505E"/>
<circle cx="887" cy="565" r="6" transform="rotate(90 887 565)" fill="#4E505E"/>
<circle cx="1363" cy="599" r="6" transform="rotate(90 1363 599)" fill="#4E505E"/>
<circle cx="1329" cy="599" r="6" transform="rotate(90 1329 599)" fill="#4E505E"/>
<circle cx="1295" cy="599" r="6" transform="rotate(90 1295 599)" fill="#4E505E"/>
<circle cx="1261" cy="599" r="6" transform="rotate(90 1261 599)" fill="#4E505E"/>
<circle cx="1227" cy="599" r="6" transform="rotate(90 1227 599)" fill="#4E505E"/>
<circle cx="1193" cy="599" r="6" transform="rotate(90 1193 599)" fill="#4E505E"/>
<circle cx="1159" cy="599" r="6" transform="rotate(90 1159 599)" fill="#4E505E"/>
<circle cx="1125" cy="599" r="6" transform="rotate(90 1125 599)" fill="#4E505E"/>
<circle cx="1091" cy="599" r="6" transform="rotate(90 1091 599)" fill="#4E505E"/>
<circle cx="1057" cy="599" r="6" transform="rotate(90 1057 599)" fill="#4E505E"/>
<circle cx="1023" cy="599" r="6" transform="rotate(90 1023 599)" fill="#4E505E"/>
<circle cx="989" cy="599" r="6" transform="rotate(90 989 599)" fill="#4E505E"/>
<circle cx="955" cy="599" r="6" transform="rotate(90 955 599)" fill="#4E505E"/>
<circle cx="921" cy="599" r="6" transform="rotate(90 921 599)" fill="#4E505E"/>
<circle cx="887" cy="599" r="6" transform="rotate(90 887 599)" fill="#4E505E"/>
<circle cx="1363" cy="633" r="6" transform="rotate(90 1363 633)" fill="#4E505E"/>
<circle cx="1329" cy="633" r="6" transform="rotate(90 1329 633)" fill="#4E505E"/>
<circle cx="1295" cy="633" r="6" transform="rotate(90 1295 633)" fill="#4E505E"/>
<circle cx="1261" cy="633" r="6" transform="rotate(90 1261 633)" fill="#4E505E"/>
<circle cx="1227" cy="633" r="6" transform="rotate(90 1227 633)" fill="#4E505E"/>
<circle cx="1193" cy="633" r="6" transform="rotate(90 1193 633)" fill="#4E505E"/>
<circle cx="1159" cy="633" r="6" transform="rotate(90 1159 633)" fill="#4E505E"/>
<circle cx="1125" cy="633" r="6" transform="rotate(90 1125 633)" fill="#4E505E"/>
<circle cx="1091" cy="633" r="6" transform="rotate(90 1091 633)" fill="#4E505E"/>
<circle cx="1057" cy="633" r="6" transform="rotate(90 1057 633)" fill="#4E505E"/>
<circle cx="1023" cy="633" r="6" transform="rotate(90 1023 633)" fill="#4E505E"/>
<circle cx="989" cy="633" r="6" transform="rotate(90 989 633)" fill="#4E505E"/>
<circle cx="955" cy="633" r="6" transform="rotate(90 955 633)" fill="#4E505E"/>
<circle cx="921" cy="633" r="6" transform="rotate(90 921 633)" fill="#4E505E"/>
<circle cx="887" cy="633" r="6" transform="rotate(90 887 633)" fill="#4E505E"/>
<circle cx="1363" cy="667" r="6" transform="rotate(90 1363 667)" fill="#4E505E"/>
<circle cx="1329" cy="667" r="6" transform="rotate(90 1329 667)" fill="#4E505E"/>
<circle cx="1295" cy="667" r="6" transform="rotate(90 1295 667)" fill="#4E505E"/>
<circle cx="1261" cy="667" r="6" transform="rotate(90 1261 667)" fill="#4E505E"/>
<circle cx="1227" cy="667" r="6" transform="rotate(90 1227 667)" fill="#4E505E"/>
<circle cx="1193" cy="667" r="6" transform="rotate(90 1193 667)" fill="#4E505E"/>
<circle cx="1159" cy="667" r="6" transform="rotate(90 1159 667)" fill="#4E505E"/>
<circle cx="1125" cy="667" r="6" transform="rotate(90 1125 667)" fill="#4E505E"/>
<circle cx="1091" cy="667" r="6" transform="rotate(90 1091 667)" fill="#4E505E"/>
<circle cx="1057" cy="667" r="6" transform="rotate(90 1057 667)" fill="#4E505E"/>
<circle cx="1023" cy="667" r="6" transform="rotate(90 1023 667)" fill="#4E505E"/>
<circle cx="989" cy="667" r="6" transform="rotate(90 989 667)" fill="#4E505E"/>
<circle cx="955" cy="667" r="6" transform="rotate(90 955 667)" fill="#4E505E"/>
<circle cx="921" cy="667" r="6" transform="rotate(90 921 667)" fill="#4E505E"/>
<circle cx="887" cy="667" r="6" transform="rotate(90 887 667)" fill="#4E505E"/>
<circle cx="1363" cy="701" r="6" transform="rotate(90 1363 701)" fill="#4E505E"/>
<circle cx="1329" cy="701" r="6" transform="rotate(90 1329 701)" fill="#4E505E"/>
<circle cx="1295" cy="701" r="6" transform="rotate(90 1295 701)" fill="#4E505E"/>
<circle cx="1261" cy="701" r="6" transform="rotate(90 1261 701)" fill="#4E505E"/>
<circle cx="1227" cy="701" r="6" transform="rotate(90 1227 701)" fill="#4E505E"/>
<circle cx="1193" cy="701" r="6" transform="rotate(90 1193 701)" fill="#4E505E"/>
<circle cx="1159" cy="701" r="6" transform="rotate(90 1159 701)" fill="#4E505E"/>
<circle cx="1125" cy="701" r="6" transform="rotate(90 1125 701)" fill="#4E505E"/>
<circle cx="1091" cy="701" r="6" transform="rotate(90 1091 701)" fill="#4E505E"/>
<circle cx="1057" cy="701" r="6" transform="rotate(90 1057 701)" fill="#4E505E"/>
<circle cx="1023" cy="701" r="6" transform="rotate(90 1023 701)" fill="#4E505E"/>
<circle cx="989" cy="701" r="6" transform="rotate(90 989 701)" fill="#4E505E"/>
<circle cx="955" cy="701" r="6" transform="rotate(90 955 701)" fill="#4E505E"/>
<circle cx="921" cy="701" r="6" transform="rotate(90 921 701)" fill="#4E505E"/>
<circle cx="887" cy="701" r="6" transform="rotate(90 887 701)" fill="#4E505E"/>
<circle cx="1125" cy="395" r="6" transform="rotate(90 1125 395)" fill="#4E505E"/>
<circle cx="1091" cy="395" r="6" transform="rotate(90 1091 395)" fill="#4E505E"/>
<circle cx="1057" cy="395" r="6" transform="rotate(90 1057 395)" fill="#4E505E"/>
<circle cx="1023" cy="395" r="6" transform="rotate(90 1023 395)" fill="#4E505E"/>
<circle cx="989" cy="395" r="6" transform="rotate(90 989 395)" fill="#4E505E"/>
<circle cx="955" cy="395" r="6" transform="rotate(90 955 395)" fill="#4E505E"/>
<circle cx="921" cy="395" r="6" transform="rotate(90 921 395)" fill="#4E505E"/>
<circle cx="887" cy="395" r="6" transform="rotate(90 887 395)" fill="#4E505E"/>
<circle cx="1125" cy="429" r="6" transform="rotate(90 1125 429)" fill="#4E505E"/>
<circle cx="1091" cy="429" r="6" transform="rotate(90 1091 429)" fill="#4E505E"/>
<circle cx="1057" cy="429" r="6" transform="rotate(90 1057 429)" fill="#4E505E"/>
<circle cx="1023" cy="429" r="6" transform="rotate(90 1023 429)" fill="#4E505E"/>
<circle cx="989" cy="429" r="6" transform="rotate(90 989 429)" fill="#4E505E"/>
<circle cx="955" cy="429" r="6" transform="rotate(90 955 429)" fill="#4E505E"/>
<circle cx="921" cy="429" r="6" transform="rotate(90 921 429)" fill="#4E505E"/>
<circle cx="887" cy="429" r="6" transform="rotate(90 887 429)" fill="#4E505E"/>
<circle cx="1125" cy="463" r="6" transform="rotate(90 1125 463)" fill="#4E505E"/>
<circle cx="1091" cy="463" r="6" transform="rotate(90 1091 463)" fill="#4E505E"/>
<circle cx="1057" cy="463" r="6" transform="rotate(90 1057 463)" fill="#4E505E"/>
<circle cx="1023" cy="463" r="6" transform="rotate(90 1023 463)" fill="#4E505E"/>
<circle cx="989" cy="463" r="6" transform="rotate(90 989 463)" fill="#4E505E"/>
<circle cx="955" cy="463" r="6" transform="rotate(90 955 463)" fill="#4E505E"/>
<circle cx="921" cy="463" r="6" transform="rotate(90 921 463)" fill="#4E505E"/>
<circle cx="887" cy="463" r="6" transform="rotate(90 887 463)" fill="#4E505E"/>
<circle cx="1125" cy="497" r="6" transform="rotate(90 1125 497)" fill="#4E505E"/>
<circle cx="1091" cy="497" r="6" transform="rotate(90 1091 497)" fill="#4E505E"/>
<circle cx="1057" cy="497" r="6" transform="rotate(90 1057 497)" fill="#4E505E"/>
<circle cx="1023" cy="497" r="6" transform="rotate(90 1023 497)" fill="#4E505E"/>
<circle cx="989" cy="497" r="6" transform="rotate(90 989 497)" fill="#4E505E"/>
<circle cx="955" cy="497" r="6" transform="rotate(90 955 497)" fill="#4E505E"/>
<circle cx="921" cy="497" r="6" transform="rotate(90 921 497)" fill="#4E505E"/>
<circle cx="887" cy="497" r="6" transform="rotate(90 887 497)" fill="#4E505E"/>
<circle cx="1125" cy="531" r="6" transform="rotate(90 1125 531)" fill="#4E505E"/>
<circle cx="1091" cy="531" r="6" transform="rotate(90 1091 531)" fill="#4E505E"/>
<circle cx="1057" cy="531" r="6" transform="rotate(90 1057 531)" fill="#4E505E"/>
<circle cx="1023" cy="531" r="6" transform="rotate(90 1023 531)" fill="#4E505E"/>
<circle cx="989" cy="531" r="6" transform="rotate(90 989 531)" fill="#4E505E"/>
<circle cx="955" cy="531" r="6" transform="rotate(90 955 531)" fill="#4E505E"/>
<circle cx="921" cy="531" r="6" transform="rotate(90 921 531)" fill="#4E505E"/>
<circle cx="887" cy="531" r="6" transform="rotate(90 887 531)" fill="#4E505E"/>
<circle cx="1125" cy="565" r="6" transform="rotate(90 1125 565)" fill="#4E505E"/>
<circle cx="1091" cy="565" r="6" transform="rotate(90 1091 565)" fill="#4E505E"/>
<circle cx="1057" cy="565" r="6" transform="rotate(90 1057 565)" fill="#4E505E"/>
<circle cx="1023" cy="565" r="6" transform="rotate(90 1023 565)" fill="#4E505E"/>
<circle cx="989" cy="565" r="6" transform="rotate(90 989 565)" fill="#4E505E"/>
<circle cx="955" cy="565" r="6" transform="rotate(90 955 565)" fill="#4E505E"/>
<circle cx="921" cy="565" r="6" transform="rotate(90 921 565)" fill="#4E505E"/>
<circle cx="887" cy="565" r="6" transform="rotate(90 887 565)" fill="#4E505E"/>
<circle cx="1125" cy="599" r="6" transform="rotate(90 1125 599)" fill="#4E505E"/>
<circle cx="1091" cy="599" r="6" transform="rotate(90 1091 599)" fill="#4E505E"/>
<circle cx="1057" cy="599" r="6" transform="rotate(90 1057 599)" fill="#4E505E"/>
<circle cx="1023" cy="599" r="6" transform="rotate(90 1023 599)" fill="#4E505E"/>
<circle cx="989" cy="599" r="6" transform="rotate(90 989 599)" fill="#4E505E"/>
<circle cx="955" cy="599" r="6" transform="rotate(90 955 599)" fill="#4E505E"/>
<circle cx="921" cy="599" r="6" transform="rotate(90 921 599)" fill="#4E505E"/>
<circle cx="887" cy="599" r="6" transform="rotate(90 887 599)" fill="#4E505E"/>
<circle cx="1125" cy="633" r="6" transform="rotate(90 1125 633)" fill="#4E505E"/>
<circle cx="1091" cy="633" r="6" transform="rotate(90 1091 633)" fill="#4E505E"/>
<circle cx="1057" cy="633" r="6" transform="rotate(90 1057 633)" fill="#4E505E"/>
<circle cx="1023" cy="633" r="6" transform="rotate(90 1023 633)" fill="#4E505E"/>
<circle cx="989" cy="633" r="6" transform="rotate(90 989 633)" fill="#4E505E"/>
<circle cx="955" cy="633" r="6" transform="rotate(90 955 633)" fill="#4E505E"/>
<circle cx="921" cy="633" r="6" transform="rotate(90 921 633)" fill="#4E505E"/>
<circle cx="887" cy="633" r="6" transform="rotate(90 887 633)" fill="#4E505E"/>
<circle cx="1125" cy="667" r="6" transform="rotate(90 1125 667)" fill="#4E505E"/>
<circle cx="1091" cy="667" r="6" transform="rotate(90 1091 667)" fill="#4E505E"/>
<circle cx="1057" cy="667" r="6" transform="rotate(90 1057 667)" fill="#4E505E"/>
<circle cx="1023" cy="667" r="6" transform="rotate(90 1023 667)" fill="#4E505E"/>
<circle cx="989" cy="667" r="6" transform="rotate(90 989 667)" fill="#4E505E"/>
<circle cx="955" cy="667" r="6" transform="rotate(90 955 667)" fill="#4E505E"/>
<circle cx="921" cy="667" r="6" transform="rotate(90 921 667)" fill="#4E505E"/>
<circle cx="887" cy="667" r="6" transform="rotate(90 887 667)" fill="#4E505E"/>
<circle cx="1125" cy="701" r="6" transform="rotate(90 1125 701)" fill="#4E505E"/>
<circle cx="1091" cy="701" r="6" transform="rotate(90 1091 701)" fill="#4E505E"/>
<circle cx="1057" cy="701" r="6" transform="rotate(90 1057 701)" fill="#4E505E"/>
<circle cx="1023" cy="701" r="6" transform="rotate(90 1023 701)" fill="#4E505E"/>
<circle cx="989" cy="701" r="6" transform="rotate(90 989 701)" fill="#4E505E"/>
<circle cx="955" cy="701" r="6" transform="rotate(90 955 701)" fill="#4E505E"/>
<circle cx="921" cy="701" r="6" transform="rotate(90 921 701)" fill="#4E505E"/>
<circle cx="887" cy="701" r="6" transform="rotate(90 887 701)" fill="#4E505E"/>
<rect x="948" y="188" width="630" height="451" fill="#F3F6E6" stroke="#4E505E" stroke-width="8"/>
<rect x="944" y="184" width="638" height="93" fill="#4E505E"/>
<circle cx="999.911" cy="230.91" r="16.9105" fill="#EC7B74"/>
<circle cx="1048.23" cy="230.91" r="16.9105" fill="#FCEC7F"/>
<circle cx="1096.54" cy="230.91" r="16.9105" fill="#94DDCC"/>
<path d="M994.935 318.921H1010.51V342.957H1020.29V349H992.84V342.957H1002.64V324.964H994.935V318.921ZM1002.64 304.285H1010.51V313.47H1002.64V304.285ZM1041.99 316.29V318.921H1051.22V324.964H1041.99V349H1034.12V324.964H1026.81V318.921H1034.12V316.827C1034.12 313.21 1034.87 310.704 1036.37 309.307C1037.88 307.911 1040.67 307.212 1044.75 307.212H1051.22V313.255H1045.07C1043.89 313.255 1043.09 313.47 1042.66 313.899C1042.25 314.329 1042.02 315.126 1041.99 316.29ZM1113.23 307.266C1110.87 311.545 1109.12 315.69 1107.97 319.7C1106.82 323.711 1106.25 327.721 1106.25 331.731C1106.25 335.706 1106.82 339.716 1107.97 343.763C1109.12 347.791 1110.87 351.954 1113.23 356.25H1107.11C1104.26 352.115 1102.15 348.042 1100.77 344.031C1099.39 340.003 1098.7 335.903 1098.7 331.731C1098.7 327.578 1099.39 323.487 1100.77 319.458C1102.17 315.412 1104.28 311.348 1107.11 307.266H1113.23ZM1141.4 316.29V318.921H1150.64V324.964H1141.4V349H1133.54V324.964H1126.23V318.921H1133.54V316.827C1133.54 313.21 1134.29 310.704 1135.79 309.307C1137.3 307.911 1140.09 307.212 1144.17 307.212H1150.64V313.255H1144.49C1143.31 313.255 1142.51 313.47 1142.08 313.899C1141.66 314.329 1141.44 315.126 1141.4 316.29ZM1160.63 318.921H1176.21V342.957H1185.98V349H1158.54V342.957H1168.34V324.964H1160.63V318.921ZM1168.34 304.285H1176.21V313.47H1168.34V304.285ZM1218.75 327.22C1217.89 326.432 1216.88 325.841 1215.71 325.447C1214.57 325.053 1213.31 324.856 1211.93 324.856C1210.26 324.856 1208.8 325.152 1207.55 325.743C1206.31 326.316 1205.36 327.157 1204.68 328.267C1204.25 328.947 1203.94 329.771 1203.76 330.738C1203.6 331.705 1203.52 333.173 1203.52 335.142V349H1195.65V318.921H1203.52V323.594C1204.29 321.875 1205.47 320.551 1207.07 319.62C1208.66 318.671 1210.52 318.196 1212.65 318.196C1213.73 318.196 1214.77 318.331 1215.79 318.599C1216.83 318.85 1217.82 319.226 1218.75 319.727V327.22ZM1247.59 319.861V326.736C1246.14 325.805 1244.63 325.107 1243.05 324.642C1241.5 324.158 1239.93 323.917 1238.35 323.917C1236.6 323.917 1235.27 324.176 1234.38 324.695C1233.48 325.197 1233.04 325.949 1233.04 326.951C1233.04 328.383 1234.95 329.547 1238.78 330.442L1239.08 330.523L1241.33 331.06C1244.2 331.74 1246.29 332.841 1247.62 334.363C1248.96 335.867 1249.63 337.908 1249.63 340.486C1249.63 343.584 1248.61 345.911 1246.57 347.469C1244.55 349.008 1241.5 349.778 1237.41 349.778C1235.6 349.778 1233.75 349.617 1231.85 349.295C1229.96 348.991 1228.03 348.525 1226.08 347.898V341.023C1227.82 342.008 1229.58 342.76 1231.37 343.279C1233.18 343.799 1234.92 344.058 1236.61 344.058C1238.45 344.058 1239.85 343.79 1240.8 343.252C1241.75 342.715 1242.22 341.937 1242.22 340.916C1242.22 339.913 1241.88 339.144 1241.2 338.606C1240.54 338.069 1238.94 337.496 1236.42 336.888L1234.24 336.404C1231.24 335.724 1229.04 334.659 1227.66 333.208C1226.29 331.758 1225.6 329.816 1225.6 327.381C1225.6 324.48 1226.64 322.225 1228.74 320.613C1230.83 319.002 1233.78 318.196 1237.57 318.196C1239.28 318.196 1240.97 318.34 1242.65 318.626C1244.35 318.895 1246 319.306 1247.59 319.861ZM1272.65 310.381V318.921H1282.93V324.964H1272.65V339.197C1272.65 340.54 1272.97 341.507 1273.61 342.098C1274.28 342.671 1275.37 342.957 1276.89 342.957H1282.93V349H1276.33C1271.81 349 1268.76 348.283 1267.17 346.851C1265.58 345.401 1264.78 342.724 1264.78 338.821V324.964H1257.1V318.921H1264.78V310.381H1272.65ZM1300.95 331.409C1296.96 329.887 1294.26 328.294 1292.84 326.629C1291.43 324.946 1290.72 322.69 1290.72 319.861C1290.72 316.227 1291.88 313.371 1294.21 311.294C1296.54 309.218 1299.74 308.179 1303.8 308.179C1305.64 308.179 1307.49 308.394 1309.33 308.824C1311.18 309.236 1313 309.853 1314.81 310.677V318.411C1313.11 317.212 1311.38 316.299 1309.63 315.672C1307.87 315.045 1306.14 314.732 1304.42 314.732C1302.5 314.732 1301.03 315.117 1300.01 315.887C1298.99 316.657 1298.48 317.758 1298.48 319.19C1298.48 320.3 1298.85 321.222 1299.58 321.956C1300.34 322.672 1301.89 323.469 1304.26 324.346L1307.67 325.635C1310.89 326.817 1313.26 328.383 1314.78 330.335C1316.31 332.286 1317.07 334.748 1317.07 337.72C1317.07 341.766 1315.87 344.792 1313.47 346.797C1311.09 348.785 1307.48 349.778 1302.65 349.778C1300.66 349.778 1298.66 349.537 1296.66 349.053C1294.67 348.588 1292.74 347.889 1290.88 346.958V338.768C1292.99 340.271 1295.04 341.39 1297.01 342.125C1298.99 342.859 1300.95 343.226 1302.89 343.226C1304.84 343.226 1306.35 342.787 1307.43 341.91C1308.5 341.014 1309.04 339.77 1309.04 338.177C1309.04 336.977 1308.68 335.93 1307.96 335.035C1307.25 334.122 1306.21 333.405 1304.85 332.886L1300.95 331.409ZM1338.93 310.381V318.921H1349.21V324.964H1338.93V339.197C1338.93 340.54 1339.25 341.507 1339.89 342.098C1340.56 342.671 1341.65 342.957 1343.17 342.957H1349.21V349H1342.61C1338.09 349 1335.04 348.283 1333.45 346.851C1331.85 345.401 1331.06 342.724 1331.06 338.821V324.964H1323.38V318.921H1331.06V310.381H1338.93ZM1383.13 347.522C1381.3 348.274 1379.44 348.838 1377.54 349.214C1375.65 349.59 1373.64 349.778 1371.53 349.778C1366.5 349.778 1362.65 348.436 1359.98 345.75C1357.33 343.047 1356.01 339.161 1356.01 334.095C1356.01 329.189 1357.29 325.313 1359.85 322.466C1362.41 319.62 1365.9 318.196 1370.32 318.196C1374.78 318.196 1378.23 319.521 1380.69 322.171C1383.16 324.803 1384.39 328.518 1384.39 333.316V336.512H1364.01C1364.03 338.875 1364.73 340.639 1366.1 341.802C1367.48 342.966 1369.54 343.548 1372.28 343.548C1374.09 343.548 1375.87 343.288 1377.63 342.769C1379.38 342.25 1381.22 341.426 1383.13 340.298V347.522ZM1376.47 330.604C1376.43 328.527 1375.9 326.96 1374.86 325.904C1373.84 324.83 1372.33 324.292 1370.32 324.292C1368.51 324.292 1367.07 324.847 1366 325.958C1364.92 327.05 1364.29 328.607 1364.09 330.63L1376.47 330.604ZM1398.55 344.756V360.44H1390.7V318.921H1398.55V323.433C1399.37 321.696 1400.45 320.389 1401.8 319.512C1403.14 318.635 1404.71 318.196 1406.52 318.196C1409.96 318.196 1412.63 319.575 1414.52 322.332C1416.42 325.089 1417.37 328.974 1417.37 333.987C1417.37 339.072 1416.4 342.975 1414.47 345.696C1412.56 348.418 1409.82 349.778 1406.25 349.778C1404.64 349.778 1403.19 349.367 1401.9 348.543C1400.63 347.701 1399.51 346.439 1398.55 344.756ZM1409.5 333.934C1409.5 331.033 1409.02 328.759 1408.05 327.112C1407.09 325.465 1405.75 324.642 1404.05 324.642C1402.35 324.642 1401.01 325.465 1400.02 327.112C1399.04 328.759 1398.55 331.033 1398.55 333.934C1398.55 336.834 1399.04 339.108 1400.02 340.755C1401.01 342.402 1402.35 343.226 1404.05 343.226C1405.75 343.226 1407.09 342.402 1408.05 340.755C1409.02 339.108 1409.5 336.834 1409.5 333.934ZM1428.11 307.266H1434.24C1437.07 311.348 1439.17 315.412 1440.55 319.458C1441.94 323.487 1442.64 327.578 1442.64 331.731C1442.64 335.903 1441.95 340.003 1440.57 344.031C1439.2 348.042 1437.08 352.115 1434.24 356.25H1428.11C1430.48 351.954 1432.23 347.791 1433.38 343.763C1434.52 339.716 1435.1 335.706 1435.1 331.731C1435.1 327.721 1434.52 323.711 1433.38 319.7C1432.23 315.69 1430.48 311.545 1428.11 307.266ZM1514.37 352.84V357.969H1510.35C1505.89 357.969 1502.9 357.307 1501.38 355.982C1499.87 354.657 1499.12 352.016 1499.12 348.06V342.286C1499.12 339.582 1498.64 337.72 1497.67 336.7C1496.72 335.661 1494.99 335.142 1492.49 335.142H1490.82V330.013H1492.49C1494.99 330.013 1496.72 329.502 1497.67 328.482C1498.64 327.461 1499.12 325.59 1499.12 322.869V317.095C1499.12 313.139 1499.87 310.507 1501.38 309.2C1502.9 307.875 1505.89 307.212 1510.35 307.212H1514.37V312.315H1511.07C1509.21 312.315 1507.96 312.691 1507.34 313.443C1506.71 314.195 1506.4 315.851 1506.4 318.411V324.024C1506.4 326.978 1505.96 329.055 1505.08 330.254C1504.2 331.454 1502.64 332.224 1500.38 332.564C1502.64 332.94 1504.2 333.737 1505.08 334.954C1505.96 336.172 1506.4 338.248 1506.4 341.185V346.69C1506.4 349.268 1506.71 350.933 1507.34 351.685C1507.96 352.455 1509.21 352.84 1511.07 352.84H1514.37ZM1081.89 383.861V390.736C1080.44 389.805 1078.93 389.107 1077.35 388.642C1075.8 388.158 1074.23 387.917 1072.65 387.917C1070.9 387.917 1069.58 388.176 1068.68 388.695C1067.78 389.197 1067.34 389.949 1067.34 390.951C1067.34 392.383 1069.25 393.547 1073.08 394.442L1073.38 394.523L1075.64 395.06C1078.5 395.74 1080.6 396.841 1081.92 398.363C1083.26 399.867 1083.93 401.908 1083.93 404.486C1083.93 407.584 1082.91 409.911 1080.87 411.469C1078.85 413.008 1075.8 413.778 1071.71 413.778C1069.91 413.778 1068.05 413.617 1066.16 413.295C1064.26 412.991 1062.33 412.525 1060.38 411.898V405.023C1062.12 406.008 1063.88 406.76 1065.67 407.279C1067.48 407.799 1069.23 408.058 1070.91 408.058C1072.75 408.058 1074.15 407.79 1075.1 407.252C1076.05 406.715 1076.52 405.937 1076.52 404.916C1076.52 403.913 1076.18 403.144 1075.5 402.606C1074.84 402.069 1073.25 401.496 1070.72 400.888L1068.55 400.404C1065.54 399.724 1063.34 398.659 1061.97 397.208C1060.59 395.758 1059.9 393.816 1059.9 391.381C1059.9 388.48 1060.95 386.225 1063.04 384.613C1065.14 383.002 1068.08 382.196 1071.88 382.196C1073.58 382.196 1075.27 382.34 1076.95 382.626C1078.65 382.895 1080.3 383.306 1081.89 383.861ZM1118.01 411.522C1116.19 412.274 1114.33 412.838 1112.43 413.214C1110.53 413.59 1108.52 413.778 1106.41 413.778C1101.38 413.778 1097.53 412.436 1094.86 409.75C1092.21 407.047 1090.89 403.161 1090.89 398.095C1090.89 393.189 1092.17 389.313 1094.73 386.466C1097.29 383.62 1100.78 382.196 1105.2 382.196C1109.66 382.196 1113.12 383.521 1115.57 386.171C1118.04 388.803 1119.28 392.518 1119.28 397.316V400.512H1098.89C1098.91 402.875 1099.61 404.639 1100.99 405.802C1102.37 406.966 1104.42 407.548 1107.16 407.548C1108.97 407.548 1110.75 407.288 1112.51 406.769C1114.26 406.25 1116.1 405.426 1118.01 404.298V411.522ZM1111.35 394.604C1111.32 392.527 1110.78 390.96 1109.74 389.904C1108.72 388.83 1107.21 388.292 1105.2 388.292C1103.4 388.292 1101.95 388.847 1100.88 389.958C1099.81 391.05 1099.17 392.607 1098.97 394.63L1111.35 394.604ZM1150.05 411.469C1148.73 412.239 1147.3 412.812 1145.78 413.188C1144.26 413.581 1142.62 413.778 1140.87 413.778C1136.23 413.778 1132.61 412.382 1129.99 409.589C1127.38 406.796 1126.07 402.929 1126.07 397.987C1126.07 393.028 1127.39 389.152 1130.02 386.359C1132.65 383.548 1136.28 382.143 1140.92 382.143C1142.53 382.143 1144.08 382.331 1145.57 382.707C1147.07 383.083 1148.57 383.664 1150.05 384.452V391.649C1148.91 390.665 1147.64 389.913 1146.27 389.394C1144.9 388.856 1143.49 388.588 1142.02 388.588C1139.46 388.588 1137.49 389.403 1136.11 391.032C1134.74 392.661 1134.05 394.979 1134.05 397.987C1134.05 400.995 1134.74 403.305 1136.11 404.916C1137.49 406.527 1139.46 407.333 1142.02 407.333C1143.54 407.333 1144.97 407.082 1146.29 406.581C1147.62 406.062 1148.87 405.283 1150.05 404.245V411.469ZM1171.24 388.588C1169.36 388.588 1167.88 389.42 1166.81 391.085C1165.74 392.733 1165.2 395.033 1165.2 397.987C1165.2 400.941 1165.74 403.251 1166.81 404.916C1167.88 406.563 1169.36 407.387 1171.24 407.387C1173.14 407.387 1174.62 406.563 1175.7 404.916C1176.77 403.251 1177.31 400.941 1177.31 397.987C1177.31 395.033 1176.77 392.733 1175.7 391.085C1174.62 389.42 1173.14 388.588 1171.24 388.588ZM1157.33 397.987C1157.33 393.135 1158.58 389.295 1161.09 386.466C1163.61 383.62 1167 382.196 1171.24 382.196C1175.5 382.196 1178.89 383.62 1181.39 386.466C1183.92 389.295 1185.18 393.135 1185.18 397.987C1185.18 402.839 1183.92 406.688 1181.39 409.535C1178.89 412.364 1175.5 413.778 1171.24 413.778C1167 413.778 1163.61 412.364 1161.09 409.535C1158.58 406.688 1157.33 402.839 1157.33 397.987ZM1216.6 393.476V413H1208.79V394.684C1208.79 392.5 1208.47 390.942 1207.85 390.011C1207.24 389.062 1206.23 388.588 1204.84 388.588C1203.42 388.588 1202.3 389.223 1201.48 390.495C1200.67 391.766 1200.27 393.529 1200.27 395.785V413H1192.46V382.921H1200.27V387.433C1200.83 385.768 1201.78 384.479 1203.12 383.566C1204.46 382.653 1206.08 382.196 1207.98 382.196C1210.83 382.196 1212.97 383.145 1214.42 385.043C1215.88 386.923 1216.6 389.734 1216.6 393.476ZM1242.22 387.191V371.212H1250.06V413H1242.22V408.542C1241.38 410.278 1240.29 411.585 1238.94 412.462C1237.62 413.34 1236.05 413.778 1234.24 413.778C1230.81 413.778 1228.14 412.4 1226.24 409.643C1224.34 406.885 1223.39 403 1223.39 397.987C1223.39 392.903 1224.35 389 1226.27 386.278C1228.2 383.557 1230.95 382.196 1234.51 382.196C1236.12 382.196 1237.57 382.617 1238.84 383.458C1240.13 384.282 1241.25 385.526 1242.22 387.191ZM1231.26 398.041C1231.26 400.941 1231.75 403.215 1232.71 404.862C1233.68 406.509 1235.01 407.333 1236.71 407.333C1238.42 407.333 1239.76 406.509 1240.74 404.862C1241.73 403.215 1242.22 400.941 1242.22 398.041C1242.22 395.141 1241.73 392.867 1240.74 391.22C1239.76 389.573 1238.42 388.749 1236.71 388.749C1235.01 388.749 1233.68 389.573 1232.71 391.22C1231.75 392.867 1231.26 395.141 1231.26 398.041ZM1267.81 395.409C1263.82 393.887 1261.12 392.294 1259.7 390.629C1258.29 388.946 1257.58 386.69 1257.58 383.861C1257.58 380.227 1258.75 377.371 1261.07 375.294C1263.4 373.218 1266.6 372.179 1270.66 372.179C1272.5 372.179 1274.35 372.394 1276.19 372.824C1278.04 373.236 1279.86 373.853 1281.67 374.677V382.411C1279.97 381.212 1278.24 380.299 1276.49 379.672C1274.73 379.045 1273 378.732 1271.28 378.732C1269.36 378.732 1267.89 379.117 1266.87 379.887C1265.85 380.657 1265.34 381.758 1265.34 383.19C1265.34 384.3 1265.71 385.222 1266.44 385.956C1267.2 386.672 1268.75 387.469 1271.12 388.346L1274.53 389.635C1277.75 390.817 1280.12 392.383 1281.64 394.335C1283.17 396.286 1283.93 398.748 1283.93 401.72C1283.93 405.766 1282.73 408.792 1280.33 410.797C1277.95 412.785 1274.34 413.778 1269.51 413.778C1267.52 413.778 1265.52 413.537 1263.52 413.053C1261.53 412.588 1259.6 411.889 1257.74 410.958V402.768C1259.86 404.271 1261.9 405.39 1263.87 406.125C1265.85 406.859 1267.81 407.226 1269.75 407.226C1271.7 407.226 1273.21 406.787 1274.29 405.91C1275.36 405.014 1275.9 403.77 1275.9 402.177C1275.9 400.977 1275.54 399.93 1274.82 399.035C1274.11 398.122 1273.07 397.405 1271.71 396.886L1267.81 395.409ZM1305.79 374.381V382.921H1316.07V388.964H1305.79V403.197C1305.79 404.54 1306.11 405.507 1306.75 406.098C1307.42 406.671 1308.51 406.957 1310.03 406.957H1316.07V413H1309.47C1304.95 413 1301.9 412.283 1300.31 410.851C1298.72 409.401 1297.92 406.724 1297.92 402.821V388.964H1290.24V382.921H1297.92V374.381H1305.79ZM1349.99 411.522C1348.17 412.274 1346.3 412.838 1344.41 413.214C1342.51 413.59 1340.5 413.778 1338.39 413.778C1333.36 413.778 1329.51 412.436 1326.84 409.75C1324.19 407.047 1322.87 403.161 1322.87 398.095C1322.87 393.189 1324.15 389.313 1326.71 386.466C1329.27 383.62 1332.76 382.196 1337.18 382.196C1341.64 382.196 1345.09 383.521 1347.55 386.171C1350.02 388.803 1351.25 392.518 1351.25 397.316V400.512H1330.87C1330.89 402.875 1331.59 404.639 1332.96 405.802C1334.34 406.966 1336.4 407.548 1339.14 407.548C1340.95 407.548 1342.73 407.288 1344.49 406.769C1346.24 406.25 1348.08 405.426 1349.99 404.298V411.522ZM1343.33 394.604C1343.3 392.527 1342.76 390.96 1341.72 389.904C1340.7 388.83 1339.19 388.292 1337.18 388.292C1335.37 388.292 1333.93 388.847 1332.86 389.958C1331.78 391.05 1331.15 392.607 1330.95 394.63L1343.33 394.604ZM1365.41 408.756V424.44H1357.56V382.921H1365.41V387.433C1366.23 385.696 1367.31 384.389 1368.66 383.512C1370 382.635 1371.57 382.196 1373.38 382.196C1376.82 382.196 1379.49 383.575 1381.39 386.332C1383.28 389.089 1384.23 392.974 1384.23 397.987C1384.23 403.072 1383.27 406.975 1381.33 409.696C1379.42 412.418 1376.68 413.778 1373.11 413.778C1371.5 413.778 1370.05 413.367 1368.76 412.543C1367.49 411.701 1366.37 410.439 1365.41 408.756ZM1376.36 397.934C1376.36 395.033 1375.88 392.759 1374.91 391.112C1373.95 389.465 1372.61 388.642 1370.91 388.642C1369.21 388.642 1367.87 389.465 1366.88 391.112C1365.9 392.759 1365.41 395.033 1365.41 397.934C1365.41 400.834 1365.9 403.108 1366.88 404.755C1367.87 406.402 1369.21 407.226 1370.91 407.226C1372.61 407.226 1373.95 406.402 1374.91 404.755C1375.88 403.108 1376.36 400.834 1376.36 397.934ZM1411.49 371.266C1409.13 375.545 1407.37 379.69 1406.23 383.7C1405.08 387.711 1404.51 391.721 1404.51 395.731C1404.51 399.706 1405.08 403.716 1406.23 407.763C1407.37 411.791 1409.13 415.954 1411.49 420.25H1405.37C1402.52 416.115 1400.41 412.042 1399.03 408.031C1397.65 404.003 1396.96 399.903 1396.96 395.731C1396.96 391.578 1397.65 387.487 1399.03 383.458C1400.43 379.412 1402.54 375.348 1405.37 371.266H1411.49ZM1428.11 371.266H1434.24C1437.07 375.348 1439.17 379.412 1440.55 383.458C1441.94 387.487 1442.64 391.578 1442.64 395.731C1442.64 399.903 1441.95 404.003 1440.57 408.031C1439.2 412.042 1437.08 416.115 1434.24 420.25H1428.11C1430.48 415.954 1432.23 411.791 1433.38 407.763C1434.52 403.716 1435.1 399.706 1435.1 395.731C1435.1 391.721 1434.52 387.711 1433.38 383.7C1432.23 379.69 1430.48 375.545 1428.11 371.266ZM1465.01 403.144H1473.96V410.421L1468.69 420.707H1462.92L1465.01 410.421V403.144ZM1465.01 384.452H1473.96V394.254H1465.01V384.452ZM993.834 480.84H997.083C998.945 480.84 1000.2 480.455 1000.84 479.685C1001.49 478.915 1001.81 477.25 1001.81 474.69V469.185C1001.81 466.248 1002.25 464.172 1003.13 462.954C1004 461.737 1005.56 460.94 1007.8 460.564C1005.54 460.224 1003.98 459.454 1003.1 458.254C1002.24 457.055 1001.81 454.978 1001.81 452.024V446.411C1001.81 443.887 1001.49 442.24 1000.84 441.47C1000.22 440.7 998.963 440.315 997.083 440.315H993.834V435.212H997.862C1002.3 435.212 1005.27 435.875 1006.75 437.2C1008.26 438.507 1009.01 441.139 1009.01 445.095V450.869C1009.01 453.573 1009.49 455.444 1010.46 456.482C1011.44 457.502 1013.2 458.013 1015.72 458.013H1017.39V463.142H1015.72C1013.2 463.142 1011.44 463.661 1010.46 464.7C1009.49 465.738 1009.01 467.6 1009.01 470.286V476.06C1009.01 480.016 1008.26 482.657 1006.75 483.982C1005.27 485.307 1002.3 485.969 997.862 485.969H993.834V480.84ZM1084.87 475.522C1083.05 476.274 1081.19 476.838 1079.29 477.214C1077.39 477.59 1075.39 477.778 1073.27 477.778C1068.24 477.778 1064.39 476.436 1061.72 473.75C1059.07 471.047 1057.75 467.161 1057.75 462.095C1057.75 457.189 1059.03 453.313 1061.59 450.466C1064.15 447.62 1067.64 446.196 1072.06 446.196C1076.52 446.196 1079.98 447.521 1082.43 450.171C1084.9 452.803 1086.14 456.518 1086.14 461.316V464.512H1065.75C1065.77 466.875 1066.47 468.639 1067.85 469.802C1069.23 470.966 1071.29 471.548 1074.02 471.548C1075.83 471.548 1077.61 471.288 1079.37 470.769C1081.12 470.25 1082.96 469.426 1084.87 468.298V475.522ZM1078.21 458.604C1078.18 456.527 1077.64 454.96 1076.6 453.904C1075.58 452.83 1074.07 452.292 1072.06 452.292C1070.26 452.292 1068.81 452.847 1067.74 453.958C1066.67 455.05 1066.03 456.607 1065.83 458.63L1078.21 458.604ZM1098.81 464.458V441.255H1090.84V435.212H1106.68V464.458C1106.68 466.821 1107.05 468.495 1107.78 469.48C1108.52 470.465 1109.76 470.957 1111.51 470.957H1117.8V477H1109.31C1105.57 477 1102.89 476.033 1101.26 474.099C1099.63 472.166 1098.81 468.952 1098.81 464.458ZM1148.17 447.861V454.736C1146.72 453.805 1145.21 453.107 1143.63 452.642C1142.08 452.158 1140.51 451.917 1138.93 451.917C1137.18 451.917 1135.85 452.176 1134.96 452.695C1134.06 453.197 1133.62 453.949 1133.62 454.951C1133.62 456.383 1135.53 457.547 1139.36 458.442L1139.66 458.523L1141.92 459.06C1144.78 459.74 1146.87 460.841 1148.2 462.363C1149.54 463.867 1150.21 465.908 1150.21 468.486C1150.21 471.584 1149.19 473.911 1147.15 475.469C1145.13 477.008 1142.08 477.778 1137.99 477.778C1136.19 477.778 1134.33 477.617 1132.44 477.295C1130.54 476.991 1128.61 476.525 1126.66 475.898V469.023C1128.4 470.008 1130.16 470.76 1131.95 471.279C1133.76 471.799 1135.51 472.058 1137.19 472.058C1139.03 472.058 1140.43 471.79 1141.38 471.252C1142.33 470.715 1142.8 469.937 1142.8 468.916C1142.8 467.913 1142.46 467.144 1141.78 466.606C1141.12 466.069 1139.52 465.496 1137 464.888L1134.83 464.404C1131.82 463.724 1129.62 462.659 1128.25 461.208C1126.87 459.758 1126.18 457.816 1126.18 455.381C1126.18 452.48 1127.23 450.225 1129.32 448.613C1131.41 447.002 1134.36 446.196 1138.16 446.196C1139.86 446.196 1141.55 446.34 1143.23 446.626C1144.93 446.895 1146.58 447.306 1148.17 447.861ZM1184.29 475.522C1182.47 476.274 1180.6 476.838 1178.71 477.214C1176.81 477.59 1174.8 477.778 1172.69 477.778C1167.66 477.778 1163.81 476.436 1161.14 473.75C1158.49 471.047 1157.17 467.161 1157.17 462.095C1157.17 457.189 1158.45 453.313 1161.01 450.466C1163.57 447.62 1167.06 446.196 1171.48 446.196C1175.94 446.196 1179.4 447.521 1181.85 450.171C1184.32 452.803 1185.56 456.518 1185.56 461.316V464.512H1165.17C1165.19 466.875 1165.89 468.639 1167.27 469.802C1168.65 470.966 1170.7 471.548 1173.44 471.548C1175.25 471.548 1177.03 471.288 1178.79 470.769C1180.54 470.25 1182.38 469.426 1184.29 468.298V475.522ZM1177.63 458.604C1177.6 456.527 1177.06 454.96 1176.02 453.904C1175 452.83 1173.49 452.292 1171.48 452.292C1169.67 452.292 1168.23 452.847 1167.16 453.958C1166.08 455.05 1165.45 456.607 1165.25 458.63L1177.63 458.604ZM1249.26 480.84V485.969H1245.23C1240.77 485.969 1237.78 485.307 1236.26 483.982C1234.75 482.657 1234 480.016 1234 476.06V470.286C1234 467.582 1233.52 465.72 1232.55 464.7C1231.6 463.661 1229.88 463.142 1227.37 463.142H1225.7V458.013H1227.37C1229.88 458.013 1231.6 457.502 1232.55 456.482C1233.52 455.461 1234 453.59 1234 450.869V445.095C1234 441.139 1234.75 438.507 1236.26 437.2C1237.78 435.875 1240.77 435.212 1245.23 435.212H1249.26V440.315H1245.95C1244.09 440.315 1242.85 440.691 1242.22 441.443C1241.59 442.195 1241.28 443.851 1241.28 446.411V452.024C1241.28 454.978 1240.84 457.055 1239.96 458.254C1239.09 459.454 1237.52 460.224 1235.26 460.564C1237.52 460.94 1239.09 461.737 1239.96 462.954C1240.84 464.172 1241.28 466.248 1241.28 469.185V474.69C1241.28 477.268 1241.59 478.933 1242.22 479.685C1242.85 480.455 1244.09 480.84 1245.95 480.84H1249.26ZM1075.13 508.29V510.921H1084.36V516.964H1075.13V541H1067.26V516.964H1059.95V510.921H1067.26V508.827C1067.26 505.21 1068.01 502.704 1069.51 501.307C1071.02 499.911 1073.81 499.212 1077.89 499.212H1084.36V505.255H1078.21C1077.03 505.255 1076.23 505.47 1075.8 505.899C1075.39 506.329 1075.16 507.126 1075.13 508.29ZM1107.22 526.874C1104.28 526.874 1102.23 527.25 1101.07 528.001C1099.9 528.753 1099.32 530.042 1099.32 531.869C1099.32 533.229 1099.73 534.312 1100.53 535.118C1101.34 535.924 1102.43 536.327 1103.81 536.327C1105.88 536.327 1107.5 535.548 1108.64 533.99C1109.79 532.415 1110.36 530.222 1110.36 527.411V526.874H1107.22ZM1118.17 523.839V541H1110.36V537.643C1109.41 538.967 1108.19 539.988 1106.71 540.704C1105.22 541.42 1103.58 541.778 1101.79 541.778C1098.37 541.778 1095.71 540.874 1093.79 539.066C1091.89 537.258 1090.94 534.733 1090.94 531.493C1090.94 527.984 1092.08 525.396 1094.35 523.731C1096.63 522.049 1100.15 521.207 1104.91 521.207H1110.36V519.891C1110.36 518.62 1109.89 517.662 1108.96 517.018C1108.05 516.355 1106.7 516.024 1104.91 516.024C1103.03 516.024 1101.2 516.266 1099.43 516.749C1097.68 517.215 1095.84 517.966 1093.92 519.005V512.291C1095.66 511.575 1097.42 511.047 1099.21 510.707C1101.01 510.366 1102.9 510.196 1104.91 510.196C1109.8 510.196 1113.22 511.19 1115.19 513.177C1117.18 515.165 1118.17 518.718 1118.17 523.839ZM1127.49 510.921H1143.07V534.957H1152.85V541H1125.4V534.957H1135.2V516.964H1127.49V510.921ZM1135.2 496.285H1143.07V505.47H1135.2V496.285ZM1165.09 528.458V505.255H1157.12V499.212H1172.96V528.458C1172.96 530.821 1173.33 532.495 1174.06 533.48C1174.8 534.465 1176.04 534.957 1177.79 534.957H1184.08V541H1175.59C1171.85 541 1169.16 540.033 1167.54 538.099C1165.91 536.166 1165.09 532.952 1165.09 528.458ZM1212.65 499.266C1210.29 503.545 1208.53 507.69 1207.39 511.7C1206.24 515.711 1205.67 519.721 1205.67 523.731C1205.67 527.706 1206.24 531.716 1207.39 535.763C1208.53 539.791 1210.29 543.954 1212.65 548.25H1206.53C1203.68 544.115 1201.57 540.042 1200.19 536.031C1198.81 532.003 1198.12 527.903 1198.12 523.731C1198.12 519.578 1198.81 515.487 1200.19 511.458C1201.59 507.412 1203.7 503.348 1206.53 499.266H1212.65ZM1229.28 499.266H1235.4C1238.23 503.348 1240.33 507.412 1241.71 511.458C1243.11 515.487 1243.8 519.578 1243.8 523.731C1243.8 527.903 1243.12 532.003 1241.74 536.031C1240.36 540.042 1238.25 544.115 1235.4 548.25H1229.28C1231.64 543.954 1233.39 539.791 1234.54 535.763C1235.69 531.716 1236.26 527.706 1236.26 523.731C1236.26 519.721 1235.69 515.711 1234.54 511.7C1233.39 507.69 1231.64 503.545 1229.28 499.266ZM1266.18 531.144H1275.12V538.421L1269.85 548.707H1264.08L1266.18 538.421V531.144ZM1266.18 512.452H1275.12V522.254H1266.18V512.452ZM993.834 608.84H997.083C998.945 608.84 1000.2 608.455 1000.84 607.685C1001.49 606.915 1001.81 605.25 1001.81 602.69V597.185C1001.81 594.248 1002.25 592.172 1003.13 590.954C1004 589.737 1005.56 588.94 1007.8 588.564C1005.54 588.224 1003.98 587.454 1003.1 586.254C1002.24 585.055 1001.81 582.978 1001.81 580.024V574.411C1001.81 571.887 1001.49 570.24 1000.84 569.47C1000.22 568.7 998.963 568.315 997.083 568.315H993.834V563.212H997.862C1002.3 563.212 1005.27 563.875 1006.75 565.2C1008.26 566.507 1009.01 569.139 1009.01 573.095V578.869C1009.01 581.573 1009.49 583.444 1010.46 584.482C1011.44 585.502 1013.2 586.013 1015.72 586.013H1017.39V591.142H1015.72C1013.2 591.142 1011.44 591.661 1010.46 592.7C1009.49 593.738 1009.01 595.6 1009.01 598.286V604.06C1009.01 608.016 1008.26 610.657 1006.75 611.982C1005.27 613.307 1002.3 613.969 997.862 613.969H993.834V608.84Z" fill="#4E505E"/>
<rect x="1468" y="541" width="142" height="142" fill="#A8C5FC" stroke="#4E505E" stroke-width="8"/>
<path d="M1498.83 634.398V622.375C1500.85 624.437 1502.99 626.007 1505.27 627.085C1507.56 628.164 1509.87 628.703 1512.19 628.703C1514.91 628.703 1516.9 628.023 1518.17 626.664C1519.43 625.304 1520.07 623.136 1520.07 620.16V593.652H1507.38V584.511H1530.44V620.16C1530.44 626.558 1529.09 631.14 1526.39 633.906C1523.72 636.648 1519.3 638.019 1513.14 638.019C1510.91 638.019 1508.58 637.714 1506.14 637.105C1503.73 636.496 1501.29 635.593 1498.83 634.398ZM1556.31 613.972C1551.09 611.98 1547.55 609.894 1545.7 607.714C1543.84 605.511 1542.92 602.558 1542.92 598.855C1542.92 594.097 1544.44 590.359 1547.49 587.64C1550.54 584.921 1554.72 583.562 1560.04 583.562C1562.45 583.562 1564.87 583.843 1567.28 584.406C1569.7 584.945 1572.09 585.753 1574.45 586.832V596.957C1572.23 595.386 1569.96 594.191 1567.67 593.371C1565.37 592.55 1563.1 592.14 1560.85 592.14C1558.34 592.14 1556.42 592.644 1555.08 593.652C1553.75 594.66 1553.08 596.101 1553.08 597.976C1553.08 599.429 1553.56 600.636 1554.52 601.597C1555.5 602.535 1557.54 603.578 1560.64 604.726L1565.1 606.414C1569.32 607.96 1572.43 610.011 1574.42 612.566C1576.41 615.121 1577.41 618.343 1577.41 622.234C1577.41 627.531 1575.84 631.492 1572.7 634.117C1569.58 636.718 1564.86 638.019 1558.53 638.019C1555.93 638.019 1553.31 637.703 1550.69 637.07C1548.09 636.46 1545.57 635.546 1543.13 634.328V623.605C1545.89 625.574 1548.57 627.039 1551.14 628C1553.75 628.96 1556.31 629.441 1558.84 629.441C1561.4 629.441 1563.38 628.867 1564.79 627.718C1566.19 626.546 1566.89 624.917 1566.89 622.832C1566.89 621.261 1566.43 619.89 1565.49 618.718C1564.55 617.523 1563.19 616.585 1561.41 615.906L1556.31 613.972Z" fill="#4E505E"/>
</g>
<defs>
<clipPath id="clip0">
<rect width="2466" height="860" fill="white"/>
</clipPath>
</defs>
</svg>
