<svg width="2466" height="860" viewBox="0 0 2466 860" fill="none" xmlns="http://www.w3.org/2000/svg">
<g clip-path="url(#clip0)">
<path d="M1567.91 456.178C1568.05 536.799 1610.9 641.498 1580.8 675.466C1550.69 709.434 1447.62 672.67 1359.69 700.672C1271.57 727.983 1197.89 820.245 1124.49 836.213C1051.27 852.871 978.145 792.546 903.72 727.387C829.295 662.228 753.76 592.927 712.218 504.157C671.367 415.202 663.129 307.149 711.043 229.19C758.266 151.415 860.951 103.921 954.99 98.7035C1049.21 94.1766 1133.91 131.422 1195.71 146.684C1256.63 161.441 1293.08 153.894 1374.74 113.514C1456.39 73.1341 1582.06 0.980433 1636.13 20.5335C1690.7 39.2112 1673.86 150.286 1643.21 234.718C1612.38 318.459 1568.45 375.372 1567.91 456.178Z" fill="#F3F6E6"/>
<circle cx="892" cy="483" r="6" transform="rotate(90 892 483)" fill="#4E505E"/>
<circle cx="858" cy="483" r="6" transform="rotate(90 858 483)" fill="#4E505E"/>
<circle cx="824" cy="483" r="6" transform="rotate(90 824 483)" fill="#4E505E"/>
<circle cx="892" cy="517" r="6" transform="rotate(90 892 517)" fill="#4E505E"/>
<circle cx="858" cy="517" r="6" transform="rotate(90 858 517)" fill="#4E505E"/>
<circle cx="824" cy="517" r="6" transform="rotate(90 824 517)" fill="#4E505E"/>
<circle cx="892" cy="551" r="6" transform="rotate(90 892 551)" fill="#4E505E"/>
<circle cx="858" cy="551" r="6" transform="rotate(90 858 551)" fill="#4E505E"/>
<circle cx="824" cy="551" r="6" transform="rotate(90 824 551)" fill="#4E505E"/>
<circle cx="892" cy="585" r="6" transform="rotate(90 892 585)" fill="#4E505E"/>
<circle cx="858" cy="585" r="6" transform="rotate(90 858 585)" fill="#4E505E"/>
<circle cx="824" cy="585" r="6" transform="rotate(90 824 585)" fill="#4E505E"/>
<circle cx="892" cy="619" r="6" transform="rotate(90 892 619)" fill="#4E505E"/>
<circle cx="858" cy="619" r="6" transform="rotate(90 858 619)" fill="#4E505E"/>
<circle cx="824" cy="619" r="6" transform="rotate(90 824 619)" fill="#4E505E"/>
<circle cx="892" cy="483" r="6" transform="rotate(90 892 483)" fill="#4E505E"/>
<circle cx="858" cy="483" r="6" transform="rotate(90 858 483)" fill="#4E505E"/>
<circle cx="824" cy="483" r="6" transform="rotate(90 824 483)" fill="#4E505E"/>
<circle cx="892" cy="517" r="6" transform="rotate(90 892 517)" fill="#4E505E"/>
<circle cx="858" cy="517" r="6" transform="rotate(90 858 517)" fill="#4E505E"/>
<circle cx="824" cy="517" r="6" transform="rotate(90 824 517)" fill="#4E505E"/>
<circle cx="892" cy="551" r="6" transform="rotate(90 892 551)" fill="#4E505E"/>
<circle cx="858" cy="551" r="6" transform="rotate(90 858 551)" fill="#4E505E"/>
<circle cx="824" cy="551" r="6" transform="rotate(90 824 551)" fill="#4E505E"/>
<circle cx="892" cy="585" r="6" transform="rotate(90 892 585)" fill="#4E505E"/>
<circle cx="858" cy="585" r="6" transform="rotate(90 858 585)" fill="#4E505E"/>
<circle cx="824" cy="585" r="6" transform="rotate(90 824 585)" fill="#4E505E"/>
<circle cx="892" cy="483" r="6" transform="rotate(90 892 483)" fill="#4E505E"/>
<circle cx="858" cy="483" r="6" transform="rotate(90 858 483)" fill="#4E505E"/>
<circle cx="824" cy="483" r="6" transform="rotate(90 824 483)" fill="#4E505E"/>
<circle cx="892" cy="517" r="6" transform="rotate(90 892 517)" fill="#4E505E"/>
<circle cx="858" cy="517" r="6" transform="rotate(90 858 517)" fill="#4E505E"/>
<circle cx="824" cy="517" r="6" transform="rotate(90 824 517)" fill="#4E505E"/>
<circle cx="892" cy="551" r="6" transform="rotate(90 892 551)" fill="#4E505E"/>
<circle cx="858" cy="551" r="6" transform="rotate(90 858 551)" fill="#4E505E"/>
<circle cx="824" cy="551" r="6" transform="rotate(90 824 551)" fill="#4E505E"/>
<circle cx="892" cy="585" r="6" transform="rotate(90 892 585)" fill="#4E505E"/>
<circle cx="858" cy="585" r="6" transform="rotate(90 858 585)" fill="#4E505E"/>
<circle cx="824" cy="585" r="6" transform="rotate(90 824 585)" fill="#4E505E"/>
<circle cx="892" cy="483" r="6" transform="rotate(90 892 483)" fill="#4E505E"/>
<circle cx="858" cy="483" r="6" transform="rotate(90 858 483)" fill="#4E505E"/>
<circle cx="824" cy="483" r="6" transform="rotate(90 824 483)" fill="#4E505E"/>
<circle cx="892" cy="517" r="6" transform="rotate(90 892 517)" fill="#4E505E"/>
<circle cx="858" cy="517" r="6" transform="rotate(90 858 517)" fill="#4E505E"/>
<circle cx="824" cy="517" r="6" transform="rotate(90 824 517)" fill="#4E505E"/>
<circle cx="892" cy="551" r="6" transform="rotate(90 892 551)" fill="#4E505E"/>
<circle cx="858" cy="551" r="6" transform="rotate(90 858 551)" fill="#4E505E"/>
<circle cx="824" cy="551" r="6" transform="rotate(90 824 551)" fill="#4E505E"/>
<circle cx="892" cy="585" r="6" transform="rotate(90 892 585)" fill="#4E505E"/>
<circle cx="858" cy="585" r="6" transform="rotate(90 858 585)" fill="#4E505E"/>
<circle cx="824" cy="585" r="6" transform="rotate(90 824 585)" fill="#4E505E"/>
<circle cx="892" cy="619" r="6" transform="rotate(90 892 619)" fill="#4E505E"/>
<circle cx="858" cy="619" r="6" transform="rotate(90 858 619)" fill="#4E505E"/>
<circle cx="824" cy="619" r="6" transform="rotate(90 824 619)" fill="#4E505E"/>
<circle cx="1523" cy="306" r="6" transform="rotate(90 1523 306)" fill="#4E505E"/>
<circle cx="1489" cy="306" r="6" transform="rotate(90 1489 306)" fill="#4E505E"/>
<circle cx="1455" cy="306" r="6" transform="rotate(90 1455 306)" fill="#4E505E"/>
<circle cx="1523" cy="340" r="6" transform="rotate(90 1523 340)" fill="#4E505E"/>
<circle cx="1489" cy="340" r="6" transform="rotate(90 1489 340)" fill="#4E505E"/>
<circle cx="1455" cy="340" r="6" transform="rotate(90 1455 340)" fill="#4E505E"/>
<circle cx="1523" cy="374" r="6" transform="rotate(90 1523 374)" fill="#4E505E"/>
<circle cx="1489" cy="374" r="6" transform="rotate(90 1489 374)" fill="#4E505E"/>
<circle cx="1455" cy="374" r="6" transform="rotate(90 1455 374)" fill="#4E505E"/>
<circle cx="1523" cy="408" r="6" transform="rotate(90 1523 408)" fill="#4E505E"/>
<circle cx="1489" cy="408" r="6" transform="rotate(90 1489 408)" fill="#4E505E"/>
<circle cx="1455" cy="408" r="6" transform="rotate(90 1455 408)" fill="#4E505E"/>
<circle cx="1523" cy="442" r="6" transform="rotate(90 1523 442)" fill="#4E505E"/>
<circle cx="1489" cy="442" r="6" transform="rotate(90 1489 442)" fill="#4E505E"/>
<circle cx="1455" cy="442" r="6" transform="rotate(90 1455 442)" fill="#4E505E"/>
<circle cx="1523" cy="306" r="6" transform="rotate(90 1523 306)" fill="#4E505E"/>
<circle cx="1489" cy="306" r="6" transform="rotate(90 1489 306)" fill="#4E505E"/>
<circle cx="1455" cy="306" r="6" transform="rotate(90 1455 306)" fill="#4E505E"/>
<circle cx="1523" cy="340" r="6" transform="rotate(90 1523 340)" fill="#4E505E"/>
<circle cx="1489" cy="340" r="6" transform="rotate(90 1489 340)" fill="#4E505E"/>
<circle cx="1455" cy="340" r="6" transform="rotate(90 1455 340)" fill="#4E505E"/>
<circle cx="1523" cy="374" r="6" transform="rotate(90 1523 374)" fill="#4E505E"/>
<circle cx="1489" cy="374" r="6" transform="rotate(90 1489 374)" fill="#4E505E"/>
<circle cx="1455" cy="374" r="6" transform="rotate(90 1455 374)" fill="#4E505E"/>
<circle cx="1523" cy="408" r="6" transform="rotate(90 1523 408)" fill="#4E505E"/>
<circle cx="1489" cy="408" r="6" transform="rotate(90 1489 408)" fill="#4E505E"/>
<circle cx="1455" cy="408" r="6" transform="rotate(90 1455 408)" fill="#4E505E"/>
<circle cx="1523" cy="306" r="6" transform="rotate(90 1523 306)" fill="#4E505E"/>
<circle cx="1489" cy="306" r="6" transform="rotate(90 1489 306)" fill="#4E505E"/>
<circle cx="1455" cy="306" r="6" transform="rotate(90 1455 306)" fill="#4E505E"/>
<circle cx="1523" cy="340" r="6" transform="rotate(90 1523 340)" fill="#4E505E"/>
<circle cx="1489" cy="340" r="6" transform="rotate(90 1489 340)" fill="#4E505E"/>
<circle cx="1455" cy="340" r="6" transform="rotate(90 1455 340)" fill="#4E505E"/>
<circle cx="1523" cy="374" r="6" transform="rotate(90 1523 374)" fill="#4E505E"/>
<circle cx="1489" cy="374" r="6" transform="rotate(90 1489 374)" fill="#4E505E"/>
<circle cx="1455" cy="374" r="6" transform="rotate(90 1455 374)" fill="#4E505E"/>
<circle cx="1523" cy="408" r="6" transform="rotate(90 1523 408)" fill="#4E505E"/>
<circle cx="1489" cy="408" r="6" transform="rotate(90 1489 408)" fill="#4E505E"/>
<circle cx="1455" cy="408" r="6" transform="rotate(90 1455 408)" fill="#4E505E"/>
<circle cx="1523" cy="306" r="6" transform="rotate(90 1523 306)" fill="#4E505E"/>
<circle cx="1489" cy="306" r="6" transform="rotate(90 1489 306)" fill="#4E505E"/>
<circle cx="1455" cy="306" r="6" transform="rotate(90 1455 306)" fill="#4E505E"/>
<circle cx="1523" cy="340" r="6" transform="rotate(90 1523 340)" fill="#4E505E"/>
<circle cx="1489" cy="340" r="6" transform="rotate(90 1489 340)" fill="#4E505E"/>
<circle cx="1455" cy="340" r="6" transform="rotate(90 1455 340)" fill="#4E505E"/>
<circle cx="1523" cy="374" r="6" transform="rotate(90 1523 374)" fill="#4E505E"/>
<circle cx="1489" cy="374" r="6" transform="rotate(90 1489 374)" fill="#4E505E"/>
<circle cx="1455" cy="374" r="6" transform="rotate(90 1455 374)" fill="#4E505E"/>
<circle cx="1523" cy="408" r="6" transform="rotate(90 1523 408)" fill="#4E505E"/>
<circle cx="1489" cy="408" r="6" transform="rotate(90 1489 408)" fill="#4E505E"/>
<circle cx="1455" cy="408" r="6" transform="rotate(90 1455 408)" fill="#4E505E"/>
<circle cx="1523" cy="442" r="6" transform="rotate(90 1523 442)" fill="#4E505E"/>
<circle cx="1489" cy="442" r="6" transform="rotate(90 1489 442)" fill="#4E505E"/>
<circle cx="1455" cy="442" r="6" transform="rotate(90 1455 442)" fill="#4E505E"/>
<circle cx="933" cy="503" r="46" fill="#F3F6E6" stroke="#4E505E" stroke-width="8"/>
<path fill-rule="evenodd" clip-rule="evenodd" d="M898.168 467.129C907.172 458.384 919.457 453 933 453C946.845 453 959.375 458.627 968.429 467.719C960.754 478.767 947.972 486 933.5 486C918.772 486 905.794 478.509 898.168 467.129Z" fill="#4E505E"/>
<mask id="path-112-inside-1" fill="white">
<path fill-rule="evenodd" clip-rule="evenodd" d="M1006 626C1006 585.683 973.317 553 933 553C892.683 553 860 585.683 860 626H1006Z"/>
</mask>
<path fill-rule="evenodd" clip-rule="evenodd" d="M1006 626C1006 585.683 973.317 553 933 553C892.683 553 860 585.683 860 626H1006Z" fill="#F487B4"/>
<path d="M1006 626V634H1014V626H1006ZM860 626H852V634H860V626ZM933 561C968.899 561 998 590.101 998 626H1014C1014 581.265 977.735 545 933 545V561ZM868 626C868 590.101 897.101 561 933 561V545C888.265 545 852 581.265 852 626H868ZM860 634H1006V618H860V634Z" fill="#4E505E" mask="url(#path-112-inside-1)"/>
<circle cx="1429" cy="325" r="46" fill="#F3F6E6" stroke="#4E505E" stroke-width="8"/>
<mask id="path-115-inside-2" fill="white">
<path fill-rule="evenodd" clip-rule="evenodd" d="M1502 448C1502 407.683 1469.32 375 1429 375C1388.68 375 1356 407.683 1356 448H1502Z"/>
</mask>
<path fill-rule="evenodd" clip-rule="evenodd" d="M1502 448C1502 407.683 1469.32 375 1429 375C1388.68 375 1356 407.683 1356 448H1502Z" fill="#94DDCC"/>
<path d="M1502 448V456H1510V448H1502ZM1356 448H1348V456H1356V448ZM1429 383C1464.9 383 1494 412.101 1494 448H1510C1510 403.265 1473.74 367 1429 367V383ZM1364 448C1364 412.101 1393.1 383 1429 383V367C1384.26 367 1348 403.265 1348 448H1364ZM1356 456H1502V440H1356V456Z" fill="#4E505E" mask="url(#path-115-inside-2)"/>
<path d="M903.059 302.117H816.941C800.431 302.117 787 315.548 787 332.059V378.303C787 391.477 795.649 402.951 808.183 406.624L822.643 421.085C823.447 421.887 824.534 422.338 825.669 422.338C826.803 422.338 827.891 421.887 828.693 421.085L841.958 407.819H903.059C919.569 407.819 933 394.388 933 377.877V332.059C933 315.548 919.569 302.117 903.059 302.117Z" fill="#FCEC7F"/>
<path d="M903.059 302.117H816.941C800.431 302.117 787 315.548 787 332.059V378.303C787 391.477 795.649 402.951 808.183 406.624L822.643 421.085C823.447 421.887 824.534 422.338 825.669 422.338C826.803 422.338 827.891 421.887 828.693 421.085L841.958 407.819H903.059C919.569 407.819 933 394.388 933 377.877V332.059C933 315.548 919.569 302.117 903.059 302.117ZM924.445 377.877C924.445 389.67 914.851 399.264 903.059 399.264H840.187C839.053 399.264 837.965 399.715 837.163 400.517L825.669 412.012L813.427 399.77C812.878 399.221 812.19 398.831 811.435 398.644C802.085 396.317 795.555 387.953 795.555 378.303V332.059C795.555 320.266 805.149 310.672 816.941 310.672H903.059C914.851 310.672 924.445 320.266 924.445 332.059V377.877Z" fill="#4E505E"/>
<path d="M887.159 343.131H832.841C830.479 343.131 828.564 345.047 828.564 347.408C828.564 349.771 830.479 351.685 832.841 351.685H887.159C889.522 351.685 891.436 349.771 891.436 347.408C891.436 345.047 889.522 343.131 887.159 343.131Z" fill="#4E505E"/>
<path d="M887.159 358.251H832.841C830.479 358.251 828.564 360.165 828.564 362.528C828.564 364.891 830.479 366.805 832.841 366.805H887.159C889.522 366.805 891.436 364.891 891.436 362.528C891.436 360.165 889.522 358.251 887.159 358.251Z" fill="#4E505E"/>
<circle cx="1181.5" cy="489.5" r="94.5" fill="#F3F6E6"/>
<rect x="1159" y="498" width="44" height="99" rx="22" fill="#C1C1C1" stroke="#4E505E" stroke-width="8"/>
<circle cx="1182" cy="494" r="56" fill="#FCEC7F" stroke="#4E505E" stroke-width="8"/>
<line x1="1160" y1="570" x2="1204" y2="570" stroke="#4E505E" stroke-width="8"/>
<line x1="1268" y1="498" x2="1300" y2="498" stroke="#4E505E" stroke-width="8"/>
<line x1="1251.46" y1="434.476" x2="1273.75" y2="412.186" stroke="#4E505E" stroke-width="8"/>
<line x1="1116.14" y1="429.1" x2="1093.85" y2="406.81" stroke="#4E505E" stroke-width="8"/>
<line x1="1062" y1="498" x2="1094" y2="498" stroke="#4E505E" stroke-width="8"/>
<line x1="1181" y1="369" x2="1181" y2="401" stroke="#4E505E" stroke-width="8"/>
<path d="M1044 621.507C1061.31 646.127 1074.02 665.697 1104.8 674.26C1162.46 690.303 1231.99 688.232 1291.14 683.12C1316.06 680.966 1362.51 674.622 1366.25 642.226C1369 618.373 1338.61 583.289 1317.45 610.329C1280.14 657.998 1390.35 646.504 1409.05 644.953C1444.45 642.014 1479.16 630.471 1485.52 590.972C1489.55 565.938 1483.53 538.815 1473.39 516" stroke="#4E505E" stroke-width="8" stroke-linecap="round" stroke-linejoin="round" stroke-dasharray="10 10"/>
<mask id="path-131-inside-3" fill="white">
<path fill-rule="evenodd" clip-rule="evenodd" d="M1387.43 335.999C1401.08 336.932 1414.84 330.763 1423.03 318.599C1431.23 306.435 1431.77 291.363 1425.77 279.066C1412.12 278.133 1398.36 284.303 1390.17 296.467C1381.98 308.631 1381.44 323.702 1387.43 335.999Z"/>
</mask>
<path fill-rule="evenodd" clip-rule="evenodd" d="M1387.43 335.999C1401.08 336.932 1414.84 330.763 1423.03 318.599C1431.23 306.435 1431.77 291.363 1425.77 279.066C1412.12 278.133 1398.36 284.303 1390.17 296.467C1381.98 308.631 1381.44 323.702 1387.43 335.999Z" fill="#4E505E"/>
<path d="M1387.43 335.999L1380.24 339.506L1382.27 343.665L1386.89 343.981L1387.43 335.999ZM1425.77 279.066L1432.96 275.56L1430.94 271.4L1426.32 271.085L1425.77 279.066ZM1416.4 314.13C1409.87 323.83 1398.89 328.764 1387.98 328.018L1386.89 343.981C1403.27 345.101 1419.82 337.696 1429.67 323.067L1416.4 314.13ZM1418.58 282.572C1423.38 292.408 1422.93 304.43 1416.4 314.13L1429.67 323.067C1439.52 308.439 1440.16 290.319 1432.96 275.56L1418.58 282.572ZM1396.81 300.936C1403.34 291.236 1414.31 286.301 1425.23 287.047L1426.32 271.085C1409.94 269.965 1393.39 277.37 1383.54 291.998L1396.81 300.936ZM1394.62 332.493C1389.83 322.657 1390.27 310.635 1396.81 300.936L1383.54 291.998C1373.68 306.627 1373.04 324.747 1380.24 339.506L1394.62 332.493Z" fill="#4E505E" mask="url(#path-131-inside-3)"/>
<mask id="path-133-inside-4" fill="white">
<path fill-rule="evenodd" clip-rule="evenodd" d="M1474.21 332.788C1478.23 319.71 1475.36 304.905 1465.39 294.155C1455.41 283.406 1440.86 279.441 1427.52 282.476C1423.5 295.553 1426.37 310.359 1436.35 321.108C1446.32 331.857 1460.87 335.822 1474.21 332.788Z"/>
</mask>
<path fill-rule="evenodd" clip-rule="evenodd" d="M1474.21 332.788C1478.23 319.71 1475.36 304.905 1465.39 294.155C1455.41 283.406 1440.86 279.441 1427.52 282.476C1423.5 295.553 1426.37 310.359 1436.35 321.108C1446.32 331.857 1460.87 335.822 1474.21 332.788Z" fill="#4E505E"/>
<path d="M1474.21 332.788L1475.99 340.588L1480.5 339.562L1481.86 335.138L1474.21 332.788ZM1427.52 282.476L1425.75 274.675L1421.23 275.702L1419.87 280.125L1427.52 282.476ZM1459.52 299.598C1467.48 308.169 1469.78 319.977 1466.57 330.437L1481.86 335.138C1486.69 319.443 1483.25 301.641 1471.25 288.713L1459.52 299.598ZM1429.3 290.277C1439.97 287.849 1451.57 291.026 1459.52 299.598L1471.25 288.713C1459.25 275.786 1441.76 271.033 1425.75 274.675L1429.3 290.277ZM1442.21 315.666C1434.26 307.094 1431.95 295.287 1435.17 284.827L1419.87 280.125C1415.05 295.82 1418.49 313.623 1430.48 326.55L1442.21 315.666ZM1472.44 324.987C1461.77 327.414 1450.17 324.237 1442.21 315.666L1430.48 326.55C1442.48 339.477 1459.98 344.231 1475.99 340.588L1472.44 324.987Z" fill="#4E505E" mask="url(#path-133-inside-4)"/>
<mask id="path-135-inside-5" fill="white">
<path fill-rule="evenodd" clip-rule="evenodd" d="M1424.77 280.537C1432.13 269.676 1433.67 255.293 1427.54 242.632C1421.42 229.97 1409.19 222.242 1396.1 221.273C1388.74 232.134 1387.21 246.517 1393.33 259.179C1399.46 271.84 1411.68 279.568 1424.77 280.537Z"/>
</mask>
<path fill-rule="evenodd" clip-rule="evenodd" d="M1424.77 280.537C1432.13 269.676 1433.67 255.293 1427.54 242.632C1421.42 229.97 1409.19 222.242 1396.1 221.273C1388.74 232.134 1387.21 246.517 1393.33 259.179C1399.46 271.84 1411.68 279.568 1424.77 280.537Z" fill="#4E505E"/>
<path d="M1424.77 280.537L1424.18 288.515L1428.8 288.857L1431.39 285.026L1424.77 280.537ZM1396.1 221.273L1396.69 213.295L1392.08 212.954L1389.48 216.784L1396.1 221.273ZM1420.34 246.115C1425.17 256.102 1423.98 267.453 1418.15 276.047L1431.39 285.026C1440.29 271.899 1442.16 254.485 1434.74 239.148L1420.34 246.115ZM1395.51 229.252C1405.87 230.018 1415.51 236.128 1420.34 246.115L1434.74 239.148C1427.32 223.811 1412.51 214.466 1396.69 213.295L1395.51 229.252ZM1400.53 255.695C1395.7 245.708 1396.9 234.357 1402.73 225.763L1389.48 216.784C1380.58 229.911 1378.71 247.326 1386.13 262.662L1400.53 255.695ZM1425.36 272.559C1415.01 271.792 1405.37 265.682 1400.53 255.695L1386.13 262.662C1393.55 277.999 1408.36 287.344 1424.18 288.515L1425.36 272.559Z" fill="#4E505E" mask="url(#path-135-inside-5)"/>
<path d="M1477.18 185.409L1477.18 181.409L1473.18 181.409L1447.97 181.409L1496.78 132.576L1545.45 181.409L1520.12 181.409L1516.12 181.409L1516.12 185.409L1516.12 249.207L1477.18 249.207L1477.18 185.409ZM1445.59 183.783L1445.59 183.783C1445.59 183.783 1445.59 183.783 1445.59 183.783Z" fill="#FCEC7F" stroke="#4E505E" stroke-width="8"/>
<path d="M1004.26 203C1024.84 224.545 1058.92 257.596 1013.89 273.807C1007.36 276.157 973.243 276.172 993.178 265.619C1015.61 253.744 1065.94 258.573 1086.62 272.362" stroke="#4E505E" stroke-width="8" stroke-linecap="round" stroke-linejoin="round"/>
</g>
<defs>
<clipPath id="clip0">
<rect width="2466" height="860" fill="white"/>
</clipPath>
</defs>
</svg>
